<svg width="75" height="30" viewBox="0 0 75 30" fill="none" xmlns="http://www.w3.org/2000/svg">
<path d="M1.29289 14.2929C0.902367 14.6834 0.902367 15.3166 1.29289 15.7071L7.65685 22.0711C8.04738 22.4616 8.68054 22.4616 9.07107 22.0711C9.46159 21.6805 9.46159 21.0474 9.07107 20.6569L3.41422 15L9.07107 9.34315C9.46159 8.95262 9.46159 8.31946 9.07107 7.92893C8.68054 7.53841 8.04738 7.53841 7.65685 7.92893L1.29289 14.2929ZM73.9571 14C73.4049 14 72.9571 14.4477 72.9571 15C72.9571 15.5523 73.4049 16 73.9571 16V14ZM65.6143 16C66.1666 16 66.6143 15.5523 66.6143 15C66.6143 14.4477 66.1666 14 65.6143 14V16ZM63.5286 14C62.9763 14 62.5286 14.4477 62.5286 15C62.5286 15.5523 62.9763 16 63.5286 16V14ZM55.1857 16C55.738 16 56.1857 15.5523 56.1857 15C56.1857 14.4477 55.738 14 55.1857 14V16ZM53.1 14C52.5477 14 52.1 14.4477 52.1 15C52.1 15.5523 52.5477 16 53.1 16V14ZM44.7571 16C45.3094 16 45.7571 15.5523 45.7571 15C45.7571 14.4477 45.3094 14 44.7571 14V16ZM42.6714 14C42.1191 14 41.6714 14.4477 41.6714 15C41.6714 15.5523 42.1191 16 42.6714 16V14ZM34.3286 16C34.8809 16 35.3286 15.5523 35.3286 15C35.3286 14.4477 34.8809 14 34.3286 14V16ZM32.2429 14C31.6906 14 31.2429 14.4477 31.2429 15C31.2429 15.5523 31.6906 16 32.2429 16V14ZM23.9 16C24.4523 16 24.9 15.5523 24.9 15C24.9 14.4477 24.4523 14 23.9 14V16ZM21.8143 14C21.262 14 20.8143 14.4477 20.8143 15C20.8143 15.5523 21.262 16 21.8143 16V14ZM13.4714 16C14.0237 16 14.4714 15.5523 14.4714 15C14.4714 14.4477 14.0237 14 13.4714 14V16ZM11.3857 14C10.8334 14 10.3857 14.4477 10.3857 15C10.3857 15.5523 10.8334 16 11.3857 16V14ZM3.04285 16C3.59514 16 4.04285 15.5523 4.04285 15C4.04285 14.4477 3.59514 14 3.04285 14V16ZM75 14H73.9571V16H75V14ZM65.6143 14H63.5286V16H65.6143V14ZM55.1857 14L53.1 14V16H55.1857V14ZM44.7571 14H42.6714V16H44.7571V14ZM34.3286 14H32.2429V16L34.3286 16V14ZM23.9 14H21.8143V16H23.9V14ZM13.4714 14H11.3857V16H13.4714V14ZM3.04285 14H2V16H3.04285V14ZM0.585785 13.5858C-0.195259 14.3668 -0.195259 15.6332 0.585785 16.4142L13.3137 29.1421C14.0948 29.9232 15.3611 29.9232 16.1421 29.1421C16.9232 28.3611 16.9232 27.0948 16.1421 26.3137L4.82843 15L16.1421 3.68629C16.9232 2.90524 16.9232 1.63891 16.1421 0.857864C15.3611 0.0768156 14.0948 0.0768156 13.3137 0.857864L0.585785 13.5858ZM73.9571 13C72.8526 13 71.9571 13.8954 71.9571 15C71.9571 16.1046 72.8526 17 73.9571 17V13ZM65.6143 17C66.7189 17 67.6143 16.1046 67.6143 15C67.6143 13.8954 66.7189 13 65.6143 13V17ZM63.5286 13C62.424 13 61.5286 13.8954 61.5286 15C61.5286 16.1046 62.424 17 63.5286 17V13ZM55.1857 17C56.2903 17 57.1857 16.1046 57.1857 15C57.1857 13.8954 56.2903 13 55.1857 13V17ZM53.1 13C51.9954 13 51.1 13.8954 51.1 15C51.1 16.1046 51.9954 17 53.1 17V13ZM44.7571 17C45.8617 17 46.7571 16.1046 46.7571 15C46.7571 13.8954 45.8617 13 44.7571 13V17ZM42.6714 13C41.5669 13 40.6714 13.8954 40.6714 15C40.6714 16.1046 41.5669 17 42.6714 17V13ZM34.3286 17C35.4331 17 36.3286 16.1046 36.3286 15C36.3286 13.8954 35.4331 13 34.3286 13V17ZM32.2429 13C31.1383 13 30.2429 13.8954 30.2429 15C30.2429 16.1046 31.1383 17 32.2429 17V13ZM23.9 17C25.0046 17 25.9 16.1046 25.9 15C25.9 13.8954 25.0046 13 23.9 13V17ZM21.8143 13C20.7097 13 19.8143 13.8954 19.8143 15C19.8143 16.1046 20.7097 17 21.8143 17V13ZM13.4714 17C14.576 17 15.4714 16.1046 15.4714 15C15.4714 13.8954 14.576 13 13.4714 13V17ZM11.3857 13C10.2811 13 9.38571 13.8954 9.38571 15C9.38571 16.1046 10.2811 17 11.3857 17V13ZM3.04285 17C4.14742 17 5.04285 16.1046 5.04285 15C5.04285 13.8954 4.14742 13 3.04285 13V17ZM75 13H73.9571V17H75V13ZM65.6143 13H63.5286V17H65.6143V13ZM55.1857 13L53.1 13V17H55.1857V13ZM44.7571 13H42.6714V17H44.7571V13ZM34.3286 13H32.2429V17L34.3286 17V13ZM23.9 13H21.8143V17H23.9V13ZM13.4714 13H11.3857V17H13.4714V13ZM3.04285 13H2V17H3.04285V13Z" fill="black"/>
</svg>
