<svg width="75" height="30" viewBox="0 0 75 30" fill="none" xmlns="http://www.w3.org/2000/svg">
<path d="M73.7071 15.7071C74.0976 15.3166 74.0976 14.6834 73.7071 14.2929L67.3431 7.92893C66.9526 7.53841 66.3195 7.53841 65.9289 7.92893C65.5384 8.31946 65.5384 8.95262 65.9289 9.34315L71.5858 15L65.9289 20.6569C65.5384 21.0474 65.5384 21.6805 65.9289 22.0711C66.3195 22.4616 66.9526 22.4616 67.3431 22.0711L73.7071 15.7071ZM1.04286 16C1.59514 16 2.04286 15.5523 2.04286 15C2.04286 14.4477 1.59514 14 1.04286 14V16ZM9.38571 14C8.83343 14 8.38571 14.4477 8.38571 15C8.38571 15.5523 8.83343 16 9.38571 16V14ZM11.4714 16C12.0237 16 12.4714 15.5523 12.4714 15C12.4714 14.4477 12.0237 14 11.4714 14V16ZM19.8143 14C19.262 14 18.8143 14.4477 18.8143 15C18.8143 15.5523 19.262 16 19.8143 16V14ZM21.9 16C22.4523 16 22.9 15.5523 22.9 15C22.9 14.4477 22.4523 14 21.9 14V16ZM30.2429 14C29.6906 14 29.2429 14.4477 29.2429 15C29.2429 15.5523 29.6906 16 30.2429 16V14ZM32.3286 16C32.8809 16 33.3286 15.5523 33.3286 15C33.3286 14.4477 32.8809 14 32.3286 14V16ZM40.6714 14C40.1191 14 39.6714 14.4477 39.6714 15C39.6714 15.5523 40.1191 16 40.6714 16V14ZM42.7571 16C43.3094 16 43.7571 15.5523 43.7571 15C43.7571 14.4477 43.3094 14 42.7571 14V16ZM51.1 14C50.5477 14 50.1 14.4477 50.1 15C50.1 15.5523 50.5477 16 51.1 16V14ZM53.1857 16C53.738 16 54.1857 15.5523 54.1857 15C54.1857 14.4477 53.738 14 53.1857 14V16ZM61.5286 14C60.9763 14 60.5286 14.4477 60.5286 15C60.5286 15.5523 60.9763 16 61.5286 16V14ZM63.6143 16C64.1666 16 64.6143 15.5523 64.6143 15C64.6143 14.4477 64.1666 14 63.6143 14V16ZM71.9571 14C71.4049 14 70.9571 14.4477 70.9571 15C70.9571 15.5523 71.4049 16 71.9571 16V14ZM0 16H1.04286V14H0L0 16ZM9.38571 16H11.4714V14H9.38571V16ZM19.8143 16H21.9V14H19.8143V16ZM30.2429 16H32.3286V14H30.2429V16ZM40.6714 16H42.7571V14H40.6714V16ZM51.1 16H53.1857V14H51.1V16ZM61.5286 16H63.6143V14H61.5286V16ZM71.9571 16H73V14H71.9571V16ZM74.4142 16.4142C75.1953 15.6332 75.1953 14.3668 74.4142 13.5858L61.6863 0.857864C60.9052 0.0768156 59.6389 0.0768156 58.8579 0.857864C58.0768 1.63891 58.0768 2.90524 58.8579 3.68629L70.1716 15L58.8579 26.3137C58.0768 27.0948 58.0768 28.3611 58.8579 29.1421C59.6389 29.9232 60.9052 29.9232 61.6863 29.1421L74.4142 16.4142ZM1.04286 17C2.14743 17 3.04286 16.1046 3.04286 15C3.04286 13.8954 2.14743 13 1.04286 13V17ZM9.38571 13C8.28115 13 7.38572 13.8954 7.38572 15C7.38572 16.1046 8.28115 17 9.38571 17V13ZM11.4714 17C12.576 17 13.4714 16.1046 13.4714 15C13.4714 13.8954 12.576 13 11.4714 13V17ZM19.8143 13C18.7097 13 17.8143 13.8954 17.8143 15C17.8143 16.1046 18.7097 17 19.8143 17V13ZM21.9 17C23.0046 17 23.9 16.1046 23.9 15C23.9 13.8954 23.0046 13 21.9 13V17ZM30.2429 13C29.1383 13 28.2429 13.8954 28.2429 15C28.2429 16.1046 29.1383 17 30.2429 17V13ZM32.3286 17C33.4331 17 34.3286 16.1046 34.3286 15C34.3286 13.8954 33.4331 13 32.3286 13V17ZM40.6714 13C39.5669 13 38.6714 13.8954 38.6714 15C38.6714 16.1046 39.5669 17 40.6714 17V13ZM42.7571 17C43.8617 17 44.7571 16.1046 44.7571 15C44.7571 13.8954 43.8617 13 42.7571 13V17ZM51.1 13C49.9954 13 49.1 13.8954 49.1 15C49.1 16.1046 49.9954 17 51.1 17V13ZM53.1857 17C54.2903 17 55.1857 16.1046 55.1857 15C55.1857 13.8954 54.2903 13 53.1857 13V17ZM61.5286 13C60.424 13 59.5286 13.8954 59.5286 15C59.5286 16.1046 60.424 17 61.5286 17V13ZM63.6143 17C64.7189 17 65.6143 16.1046 65.6143 15C65.6143 13.8954 64.7189 13 63.6143 13V17ZM71.9571 13C70.8526 13 69.9571 13.8954 69.9571 15C69.9571 16.1046 70.8526 17 71.9571 17V13ZM0 17H1.04286V13H0L0 17ZM9.38571 17H11.4714V13H9.38571V17ZM19.8143 17H21.9V13H19.8143V17ZM30.2429 17H32.3286V13H30.2429V17ZM40.6714 17H42.7571V13H40.6714V17ZM51.1 17H53.1857V13H51.1V17ZM61.5286 17H63.6143V13H61.5286V17ZM71.9571 17H73V13H71.9571V17Z" fill="black"/>
</svg>
