<svg width="30" height="75" viewBox="0 0 30 75" fill="none" xmlns="http://www.w3.org/2000/svg">
<path d="M14.2929 73.7071C14.6834 74.0976 15.3166 74.0976 15.7071 73.7071L22.0711 67.3431C22.4616 66.9526 22.4616 66.3195 22.0711 65.9289C21.6805 65.5384 21.0474 65.5384 20.6569 65.9289L15 71.5858L9.34315 65.9289C8.95262 65.5384 8.31946 65.5384 7.92893 65.9289C7.53841 66.3195 7.53841 66.9526 7.92893 67.3431L14.2929 73.7071ZM14 1.04286C14 1.59514 14.4477 2.04286 15 2.04286C15.5523 2.04286 16 1.59514 16 1.04286H14ZM16 9.38571C16 8.83343 15.5523 8.38571 15 8.38571C14.4477 8.38571 14 8.83343 14 9.38571H16ZM14 11.4714C14 12.0237 14.4477 12.4714 15 12.4714C15.5523 12.4714 16 12.0237 16 11.4714H14ZM16 19.8143C16 19.262 15.5523 18.8143 15 18.8143C14.4477 18.8143 14 19.262 14 19.8143H16ZM14 21.9C14 22.4523 14.4477 22.9 15 22.9C15.5523 22.9 16 22.4523 16 21.9H14ZM16 30.2429C16 29.6906 15.5523 29.2429 15 29.2429C14.4477 29.2429 14 29.6906 14 30.2429H16ZM14 32.3286C14 32.8809 14.4477 33.3286 15 33.3286C15.5523 33.3286 16 32.8809 16 32.3286H14ZM16 40.6714C16 40.1191 15.5523 39.6714 15 39.6714C14.4477 39.6714 14 40.1191 14 40.6714H16ZM14 42.7571C14 43.3094 14.4477 43.7571 15 43.7571C15.5523 43.7571 16 43.3094 16 42.7571H14ZM16 51.1C16 50.5477 15.5523 50.1 15 50.1C14.4477 50.1 14 50.5477 14 51.1H16ZM14 53.1857C14 53.738 14.4477 54.1857 15 54.1857C15.5523 54.1857 16 53.738 16 53.1857H14ZM16 61.5286C16 60.9763 15.5523 60.5286 15 60.5286C14.4477 60.5286 14 60.9763 14 61.5286H16ZM14 63.6143C14 64.1666 14.4477 64.6143 15 64.6143C15.5523 64.6143 16 64.1666 16 63.6143H14ZM16 71.9571C16 71.4049 15.5523 70.9571 15 70.9571C14.4477 70.9571 14 71.4049 14 71.9571H16ZM14 0V1.04286H16V0L14 0ZM14 9.38571V11.4714H16V9.38571H14ZM14 19.8143V21.9H16V19.8143H14ZM14 30.2429V32.3286H16V30.2429H14ZM14 40.6714V42.7571H16V40.6714H14ZM14 51.1V53.1857H16V51.1H14ZM14 61.5286V63.6143H16V61.5286H14ZM14 71.9571V73H16V71.9571H14ZM13.5858 74.4142C14.3668 75.1953 15.6332 75.1953 16.4142 74.4142L29.1421 61.6863C29.9232 60.9052 29.9232 59.6389 29.1421 58.8579C28.3611 58.0768 27.0948 58.0768 26.3137 58.8579L15 70.1716L3.68629 58.8579C2.90524 58.0768 1.63891 58.0768 0.857864 58.8579C0.0768156 59.6389 0.0768156 60.9052 0.857864 61.6863L13.5858 74.4142ZM13 1.04286C13 2.14743 13.8954 3.04286 15 3.04286C16.1046 3.04286 17 2.14743 17 1.04286L13 1.04286ZM17 9.38571C17 8.28115 16.1046 7.38572 15 7.38572C13.8954 7.38572 13 8.28115 13 9.38571H17ZM13 11.4714C13 12.576 13.8954 13.4714 15 13.4714C16.1046 13.4714 17 12.576 17 11.4714H13ZM17 19.8143C17 18.7097 16.1046 17.8143 15 17.8143C13.8954 17.8143 13 18.7097 13 19.8143H17ZM13 21.9C13 23.0046 13.8954 23.9 15 23.9C16.1046 23.9 17 23.0046 17 21.9H13ZM17 30.2429C17 29.1383 16.1046 28.2429 15 28.2429C13.8954 28.2429 13 29.1383 13 30.2429H17ZM13 32.3286C13 33.4331 13.8954 34.3286 15 34.3286C16.1046 34.3286 17 33.4331 17 32.3286H13ZM17 40.6714C17 39.5669 16.1046 38.6714 15 38.6714C13.8954 38.6714 13 39.5669 13 40.6714H17ZM13 42.7571C13 43.8617 13.8954 44.7571 15 44.7571C16.1046 44.7571 17 43.8617 17 42.7571H13ZM17 51.1C17 49.9954 16.1046 49.1 15 49.1C13.8954 49.1 13 49.9954 13 51.1H17ZM13 53.1857C13 54.2903 13.8954 55.1857 15 55.1857C16.1046 55.1857 17 54.2903 17 53.1857H13ZM17 61.5286C17 60.424 16.1046 59.5286 15 59.5286C13.8954 59.5286 13 60.424 13 61.5286H17ZM13 63.6143C13 64.7189 13.8954 65.6143 15 65.6143C16.1046 65.6143 17 64.7189 17 63.6143H13ZM17 71.9571C17 70.8526 16.1046 69.9571 15 69.9571C13.8954 69.9571 13 70.8526 13 71.9571H17ZM13 0V1.04286L17 1.04286V0L13 0ZM13 9.38571V11.4714H17V9.38571H13ZM13 19.8143V21.9H17V19.8143H13ZM13 30.2429V32.3286H17V30.2429H13ZM13 40.6714V42.7571H17V40.6714H13ZM13 51.1V53.1857H17V51.1H13ZM13 61.5286V63.6143H17V61.5286H13ZM13 71.9571V73H17V71.9571H13Z" fill="black"/>
</svg>
