<svg width="200" height="279" viewBox="0 0 200 279" fill="none" xmlns="http://www.w3.org/2000/svg">
<circle cx="100" cy="100" r="100" fill="#D9D9D9"/>
<path d="M99.2929 277.707C99.6834 278.098 100.317 278.098 100.707 277.707L107.071 271.343C107.462 270.953 107.462 270.319 107.071 269.929C106.681 269.538 106.047 269.538 105.657 269.929L100 275.586L94.3431 269.929C93.9526 269.538 93.3195 269.538 92.9289 269.929C92.5384 270.319 92.5384 270.953 92.9289 271.343L99.2929 277.707ZM99 205.043C99 205.595 99.4477 206.043 100 206.043C100.552 206.043 101 205.595 101 205.043H99ZM101 213.386C101 212.833 100.552 212.386 100 212.386C99.4477 212.386 99 212.833 99 213.386H101ZM99 215.471C99 216.024 99.4477 216.471 100 216.471C100.552 216.471 101 216.024 101 215.471H99ZM101 223.814C101 223.262 100.552 222.814 100 222.814C99.4477 222.814 99 223.262 99 223.814H101ZM99 225.9C99 226.452 99.4477 226.9 100 226.9C100.552 226.9 101 226.452 101 225.9H99ZM101 234.243C101 233.691 100.552 233.243 100 233.243C99.4477 233.243 99 233.691 99 234.243H101ZM99 236.329C99 236.881 99.4477 237.329 100 237.329C100.552 237.329 101 236.881 101 236.329H99ZM101 244.671C101 244.119 100.552 243.671 100 243.671C99.4477 243.671 99 244.119 99 244.671H101ZM99 246.757C99 247.309 99.4477 247.757 100 247.757C100.552 247.757 101 247.309 101 246.757H99ZM101 255.1C101 254.548 100.552 254.1 100 254.1C99.4477 254.1 99 254.548 99 255.1H101ZM99 257.186C99 257.738 99.4477 258.186 100 258.186C100.552 258.186 101 257.738 101 257.186H99ZM101 265.529C101 264.976 100.552 264.529 100 264.529C99.4477 264.529 99 264.976 99 265.529H101ZM99 267.614C99 268.167 99.4477 268.614 100 268.614C100.552 268.614 101 268.167 101 267.614H99ZM101 275.957C101 275.405 100.552 274.957 100 274.957C99.4477 274.957 99 275.405 99 275.957H101ZM99 204V205.043H101V204H99ZM99 213.386V215.471H101V213.386H99ZM99 223.814V225.9H101V223.814H99ZM99 234.243V236.329H101V234.243H99ZM99 244.671V246.757H101V244.671H99ZM99 255.1V257.186H101V255.1H99ZM99 265.529V267.614H101V265.529H99ZM99 275.957V277H101V275.957H99ZM98.5858 278.414C99.3668 279.195 100.633 279.195 101.414 278.414L114.142 265.686C114.923 264.905 114.923 263.639 114.142 262.858C113.361 262.077 112.095 262.077 111.314 262.858L100 274.172L88.6863 262.858C87.9052 262.077 86.6389 262.077 85.8579 262.858C85.0768 263.639 85.0768 264.905 85.8579 265.686L98.5858 278.414ZM98 205.043C98 206.147 98.8954 207.043 100 207.043C101.105 207.043 102 206.147 102 205.043H98ZM102 213.386C102 212.281 101.105 211.386 100 211.386C98.8954 211.386 98 212.281 98 213.386H102ZM98 215.471C98 216.576 98.8954 217.471 100 217.471C101.105 217.471 102 216.576 102 215.471H98ZM102 223.814C102 222.71 101.105 221.814 100 221.814C98.8954 221.814 98 222.71 98 223.814H102ZM98 225.9C98 227.005 98.8954 227.9 100 227.9C101.105 227.9 102 227.005 102 225.9H98ZM102 234.243C102 233.138 101.105 232.243 100 232.243C98.8954 232.243 98 233.138 98 234.243H102ZM98 236.329C98 237.433 98.8954 238.329 100 238.329C101.105 238.329 102 237.433 102 236.329H98ZM102 244.671C102 243.567 101.105 242.671 100 242.671C98.8954 242.671 98 243.567 98 244.671H102ZM98 246.757C98 247.862 98.8954 248.757 100 248.757C101.105 248.757 102 247.862 102 246.757H98ZM102 255.1C102 253.995 101.105 253.1 100 253.1C98.8954 253.1 98 253.995 98 255.1H102ZM98 257.186C98 258.29 98.8954 259.186 100 259.186C101.105 259.186 102 258.29 102 257.186H98ZM102 265.529C102 264.424 101.105 263.529 100 263.529C98.8954 263.529 98 264.424 98 265.529H102ZM98 267.614C98 268.719 98.8954 269.614 100 269.614C101.105 269.614 102 268.719 102 267.614H98ZM102 275.957C102 274.853 101.105 273.957 100 273.957C98.8954 273.957 98 274.853 98 275.957H102ZM98 204V205.043H102V204H98ZM98 213.386V215.471H102V213.386H98ZM98 223.814V225.9H102V223.814H98ZM98 234.243V236.329H102V234.243H98ZM98 244.671V246.757H102V244.671H98ZM98 255.1V257.186H102V255.1H98ZM98 265.529V267.614H102V265.529H98ZM98 275.957V277H102V275.957H98Z" fill="black"/>
</svg>
