<svg aria-hidden="true" style="position: absolute; width: 0; height: 0; overflow: hidden;" version="1.1" xmlns="http://www.w3.org/2000/svg" xmlns:xlink="http://www.w3.org/1999/xlink">
<defs>
<symbol id="spiner" viewBox="0 0 172 32">
<path stroke-linejoin="miter" stroke-linecap="butt" stroke-miterlimit="4" stroke-width="0.8" d="M1.003 17.781l0.544 0.792 0.272 0.395 0.272 0.394 0.272 0.392 0.272 0.391 0.272 0.388 0.272 0.386 0.272 0.383 0.272 0.38 0.272 0.377 0.272 0.373 0.272 0.368 0.272 0.364 0.272 0.359 0.272 0.354 0.272 0.348 0.272 0.343 0.272 0.337 0.272 0.33 0.272 0.323 0.272 0.316 0.272 0.309 0.272 0.302 0.272 0.294 0.272 0.286 0.272 0.277 0.272 0.269 0.272 0.26 0.272 0.251 0.272 0.242 0.272 0.232 0.272 0.222 0.272 0.212 0.272 0.202 0.272 0.192 0.272 0.181 0.272 0.171 0.272 0.16 0.272 0.149 0.272 0.138 0.272 0.127 0.272 0.115 0.272 0.104 0.272 0.092 0.272 0.081 0.272 0.069 0.272 0.058 0.272 0.046 0.272 0.034 0.272 0.022 0.272 0.010 0.272-0.002 0.272-0.014 0.272-0.025 0.272-0.037 0.272-0.049 0.272-0.061 0.272-0.072 0.272-0.084 0.272-0.096 0.272-0.107 0.272-0.119 0.272-0.13 0.272-0.141 0.272-0.152 0.272-0.163 0.272-0.174 0.272-0.184 0.272-0.195 0.272-0.205 0.272-0.215 0.272-0.225 0.272-0.235 0.272-0.244 0.272-0.253 0.272-0.262 0.272-0.271 0.272-0.28 0.272-0.288 0.272-0.296 0.272-0.304 0.272-0.311 0.272-0.318 0.272-0.325 0.272-0.332 0.272-0.338 0.272-0.344 0.272-0.35 0.272-0.355 0.272-0.361 0.272-0.365 0.272-0.37 0.272-0.374 0.272-0.378 0.272-0.381 0.272-0.384 0.272-0.387 0.272-0.389 0.272-0.391 0.272-0.393 0.272-0.394 0.544-0.791 0.816-1.187 0.272-0.395 0.272-0.393 0.272-0.392 0.272-0.39 0.272-0.388 0.272-0.385 0.272-0.382 0.272-0.379 0.272-0.375 0.272-0.372 0.272-0.367 0.272-0.363 0.272-0.358 0.272-0.352 0.272-0.347 0.272-0.341 0.272-0.335 0.272-0.328 0.272-0.322 0.272-0.314 0.272-0.307 0.272-0.299 0.272-0.292 0.272-0.283 0.272-0.275 0.272-0.266 0.272-0.257 0.272-0.248 0.272-0.239 0.272-0.229 0.272-0.219 0.272-0.209 0.272-0.199 0.272-0.189 0.272-0.178 0.272-0.168 0.272-0.157 0.272-0.146 0.272-0.135 0.272-0.124 0.272-0.112 0.272-0.101 0.272-0.089 0.272-0.078 0.272-0.066 0.272-0.054 0.272-0.042 0.272-0.031 0.272-0.019 0.272-0.007 0.272 0.005 0.272 0.017 0.272 0.029 0.272 0.041 0.272 0.052 0.272 0.064 0.272 0.076 0.272 0.087 0.272 0.099 0.272 0.11 0.272 0.122 0.272 0.133 0.272 0.144 0.272 0.155 0.272 0.166 0.272 0.177 0.272 0.187 0.272 0.198 0.272 0.208 0.272 0.218 0.272 0.228 0.272 0.237 0.272 0.247 0.272 0.256 0.272 0.265 0.272 0.274 0.272 0.282 0.272 0.29 0.272 0.298 0.272 0.306 0.272 0.313 0.272 0.32 0.272 0.327 0.272 0.334 0.272 0.34 0.272 0.346 0.272 0.352 0.272 0.357 0.272 0.362 0.272 0.366 0.272 0.371 0.272 0.375 0.272 0.378 0.272 0.382 0.272 0.385 0.272 0.387 0.272 0.39 0.272 0.392 0.272 0.393 0.272 0.394 1.632 2.372 0.272 0.393 0.272 0.391 0.272 0.39 0.272 0.387 0.272 0.384 0.272 0.381 0.272 0.378 0.272 0.374 0.272 0.37 0.272 0.366 0.272 0.361 0.272 0.356 0.272 0.351 0.272 0.345 0.272 0.339 0.272 0.333 0.272 0.326 0.272 0.32 0.272 0.312 0.272 0.305 0.272 0.297 0.272 0.289 0.272 0.281 0.272 0.273 0.272 0.264 0.272 0.255 0.272 0.246 0.272 0.236 0.272 0.226 0.272 0.217 0.272 0.207 0.272 0.196 0.272 0.186 0.272 0.175 0.272 0.165 0.272 0.154 0.272 0.143 0.272 0.132 0.272 0.12 0.272 0.109 0.272 0.098 0.272 0.086 0.272 0.074 0.272 0.063 0.272 0.051 0.272 0.039 0.272 0.027 0.272 0.015 0.272 0.004 0.272-0.008 0.272-0.020 0.272-0.032 0.272-0.044 0.272-0.056 0.272-0.067 0.272-0.079 0.272-0.091 0.272-0.102 0.272-0.114 0.272-0.125 0.272-0.136 0.272-0.147 0.272-0.158 0.272-0.169 0.272-0.18 0.272-0.19 0.272-0.201 0.272-0.211 0.272-0.221 0.272-0.23 0.272-0.24 0.272-0.249 0.272-0.258 0.272-0.267 0.272-0.276 0.272-0.284 0.272-0.292 0.272-0.3 0.272-0.308 0.272-0.315 0.272-0.322 0.272-0.329 0.272-0.336 0.272-0.342 0.272-0.348 0.272-0.353 0.272-0.358 0.273-0.363 0.272-0.368 0.272-0.372 0.272-0.376 0.272-0.379 0.272-0.383 0.272-0.386 0.272-0.388 0.272-0.39 0.272-0.392 0.272-0.394 0.272-0.395 1.632-2.372 0.273-0.393 0.272-0.391 0.272-0.389 0.272-0.386 0.272-0.384 0.272-0.38 0.272-0.377 0.272-0.373 0.272-0.369 0.272-0.365 0.272-0.36 0.272-0.355 0.272-0.349 0.272-0.344 0.272-0.338 0.272-0.331 0.272-0.324 0.272-0.318 0.273-0.31 0.272-0.303 0.272-0.295 0.272-0.287 0.272-0.279 0.272-0.27 0.272-0.261 0.272-0.252 0.272-0.243 0.272-0.233 0.272-0.224 0.272-0.214 0.272-0.204 0.272-0.194 0.272-0.183 0.272-0.172 0.272-0.162 0.272-0.151 0.273-0.14 0.272-0.129 0.272-0.117 0.272-0.106 0.272-0.094 0.272-0.083 0.272-0.071 0.272-0.059 0.272-0.048 0.272-0.036 0.272-0.024 0.272-0.012 0.272-0 0.272 0.012 0.272 0.024 0.272 0.035 0.272 0.047 0.272 0.059 0.273 0.071 0.272 0.082 0.272 0.094 0.272 0.105 0.272 0.117 0.272 0.128 0.272 0.139 0.272 0.15 0.272 0.161 0.272 0.172 0.272 0.183 0.272 0.193 0.272 0.203 0.272 0.213 0.272 0.223 0.272 0.233 0.272 0.243 0.272 0.252 0.273 0.261 0.272 0.27 0.272 0.278 0.272 0.287 0.272 0.295 0.272 0.302 0.272 0.31 0.272 0.317 0.272 0.324 0.272 0.331 0.272 0.337 0.272 0.343 0.272 0.349 0.272 0.355 0.272 0.36 0.272 0.365 0.272 0.369 0.272 0.373 0.273 0.377 0.272 0.38 0.272 0.384 0.272 0.386 0.272 0.389 0.272 0.391 0.272 0.393 0.272 0.394 0.272 0.395 1.36 1.978 0.272 0.394 0.272 0.392 0.272 0.39 0.273 0.388 0.272 0.386 0.272 0.383 0.272 0.38 0.272 0.376 0.272 0.372 0.272 0.368 0.272 0.363 0.272 0.358 0.272 0.353 0.272 0.348 0.272 0.342 0.272 0.336 0.272 0.329 0.272 0.323 0.272 0.316 0.272 0.308 0.272 0.301 0.273 0.293 0.272 0.285 0.272 0.276 0.272 0.268 0.272 0.259 0.272 0.25 0.272 0.24 0.272 0.231 0.272 0.221 0.272 0.211 0.272 0.201 0.272 0.191 0.272 0.18 0.272 0.169 0.272 0.159 0.272 0.148 0.272 0.137 0.272 0.125 0.273 0.114 0.272 0.103 0.272 0.091 0.272 0.080 0.272 0.068 0.272 0.056 0.272 0.044 0.272 0.033 0.272 0.021 0.272 0.009 0.272-0.003 0.272-0.015 0.272-0.027 0.272-0.039 0.272-0.050 0.272-0.062 0.272-0.074 0.272-0.086 0.273-0.097 0.272-0.109 0.272-0.12 0.272-0.131 0.272-0.142 0.272-0.153 0.272-0.164 0.272-0.175 0.272-0.186 0.272-0.196 0.272-0.206 0.272-0.216 0.272-0.226 0.272-0.236 0.272-0.245 0.272-0.254 0.272-0.263 0.272-0.272 0.273-0.281 0.272-0.289 0.272-0.297 0.272-0.305 0.272-0.312 0.272-0.319 0.272-0.326 0.272-0.333 0.272-0.339 0.272-0.345 0.272-0.351 0.272-0.356 0.272-0.361 0.272-0.366 0.272-0.37 0.272-0.374 0.272-0.378 0.272-0.381 0.273-0.384 0.272-0.387 0.272-0.389 0.272-0.391 0.272-0.393 0.272-0.394 1.904-2.766 0.272-0.392 0.272-0.39 0.272-0.388 0.272-0.385 0.273-0.382 0.272-0.379 0.272-0.375 0.272-0.371 0.272-0.367 0.272-0.362 0.272-0.357 0.272-0.352 0.272-0.346 0.272-0.34 0.272-0.334 0.272-0.327 0.272-0.321 0.272-0.314 0.272-0.306 0.272-0.298 0.272-0.29 0.272-0.282 0.273-0.274 0.272-0.265 0.272-0.256 0.272-0.247 0.272-0.238 0.272-0.228 0.272-0.218 0.272-0.208 0.272-0.198 0.272-0.188 0.272-0.177 0.272-0.166 0.272-0.156 0.272-0.145 0.272-0.133 0.272-0.122 0.272-0.111 0.272-0.099 0.273-0.088 0.272-0.076 0.272-0.065 0.272-0.053 0.272-0.041 0.272-0.029 0.272-0.017 0.272-0.005 0.272 0.006 0.272 0.018 0.272 0.030 0.272 0.042 0.272 0.054 0.272 0.066 0.272 0.077 0.272 0.089 0.272 0.1 0.272 0.112 0.273 0.123 0.272 0.134 0.272 0.146 0.272 0.156 0.272 0.167 0.272 0.178 0.272 0.189 0.272 0.199 0.272 0.209 0.272 0.219 0.272 0.229 0.272 0.238 0.272 0.248 0.272 0.257 0.272 0.266 0.272 0.275 0.272 0.283 0.272 0.291 0.273 0.299 0.272 0.307 0.272 0.314 0.272 0.321 0.272 0.328 0.272 0.334 0.272 0.341 0.272 0.347 0.272 0.352 0.272 0.357 0.272 0.362 0.272 0.367 0.272 0.371 0.272 0.375 0.272 0.379 0.272 0.382 0.272 0.385 0.272 0.388 0.273 0.39 0.272 0.392 0.272 0.393 0.272 0.395 0.272 0.395"></path>
<path stroke-linejoin="miter" stroke-linecap="butt" stroke-miterlimit="4" stroke-width="0.8" d="M1.003 16l0.544 0.898 0.272 0.448 0.272 0.447 0.272 0.445 0.272 0.443 0.272 0.441 0.272 0.438 0.272 0.435 0.272 0.431 0.272 0.427 0.272 0.423 0.272 0.418 0.272 0.413 0.272 0.408 0.272 0.402 0.272 0.395 0.272 0.389 0.272 0.382 0.272 0.375 0.272 0.367 0.272 0.359 0.272 0.351 0.272 0.342 0.272 0.333 0.272 0.324 0.272 0.315 0.272 0.305 0.272 0.295 0.272 0.285 0.272 0.274 0.272 0.263 0.272 0.252 0.272 0.241 0.272 0.229 0.272 0.218 0.272 0.206 0.272 0.194 0.272 0.182 0.272 0.169 0.272 0.157 0.272 0.144 0.272 0.131 0.272 0.118 0.272 0.105 0.272 0.092 0.272 0.079 0.272 0.065 0.272 0.052 0.272 0.038 0.272 0.025 0.272 0.012 0.272-0.002 0.272-0.015 0.272-0.029 0.272-0.042 0.272-0.056 0.272-0.069 0.272-0.082 0.272-0.096 0.272-0.109 0.272-0.122 0.272-0.135 0.272-0.147 0.272-0.16 0.272-0.173 0.272-0.185 0.272-0.197 0.272-0.209 0.272-0.221 0.272-0.233 0.272-0.244 0.272-0.255 0.272-0.266 0.272-0.277 0.272-0.288 0.272-0.298 0.272-0.308 0.272-0.317 0.272-0.327 0.272-0.336 0.272-0.345 0.272-0.353 0.272-0.361 0.272-0.369 0.272-0.377 0.272-0.384 0.272-0.391 0.272-0.397 0.272-0.403 0.272-0.409 0.272-0.415 0.272-0.42 0.272-0.424 0.272-0.428 0.272-0.432 0.272-0.436 0.272-0.439 0.272-0.442 0.272-0.444 0.272-0.446 0.272-0.447 0.272-0.448 1.36-2.244 0.272-0.446 0.272-0.445 0.272-0.443 0.272-0.44 0.272-0.437 0.272-0.434 0.272-0.43 0.272-0.426 0.272-0.422 0.272-0.417 0.272-0.412 0.272-0.406 0.272-0.4 0.272-0.394 0.272-0.387 0.272-0.38 0.272-0.373 0.272-0.365 0.272-0.357 0.272-0.348 0.272-0.34 0.272-0.331 0.272-0.322 0.272-0.312 0.272-0.302 0.272-0.292 0.272-0.282 0.272-0.271 0.272-0.26 0.272-0.249 0.272-0.238 0.272-0.226 0.272-0.214 0.272-0.203 0.272-0.19 0.272-0.178 0.272-0.166 0.272-0.153 0.272-0.14 0.272-0.127 0.272-0.114 0.272-0.101 0.272-0.088 0.272-0.075 0.272-0.062 0.272-0.048 0.272-0.035 0.272-0.021 0.272-0.008 0.272 0.006 0.272 0.019 0.272 0.033 0.272 0.046 0.272 0.059 0.272 0.073 0.272 0.086 0.272 0.099 0.272 0.112 0.272 0.125 0.272 0.138 0.272 0.151 0.272 0.164 0.272 0.176 0.272 0.188 0.272 0.201 0.272 0.213 0.272 0.224 0.272 0.236 0.272 0.247 0.272 0.258 0.272 0.269 0.272 0.28 0.272 0.29 0.272 0.301 0.272 0.31 0.272 0.32 0.272 0.329 0.272 0.338 0.272 0.347 0.272 0.356 0.272 0.364 0.272 0.371 0.272 0.379 0.272 0.386 0.272 0.393 0.272 0.399 0.272 0.405 0.272 0.411 0.272 0.416 0.272 0.421 0.272 0.425 0.272 0.43 0.272 0.433 0.272 0.437 0.272 0.44 0.272 0.442 0.272 0.444 0.272 0.446 0.272 0.448 0.272 0.449 1.088 1.796 0.272 0.448 0.272 0.446 0.272 0.444 0.272 0.442 0.272 0.439 0.272 0.436 0.272 0.433 0.272 0.429 0.272 0.425 0.272 0.42 0.272 0.415 0.272 0.41 0.272 0.404 0.272 0.398 0.272 0.392 0.272 0.385 0.272 0.378 0.272 0.37 0.272 0.363 0.272 0.355 0.272 0.346 0.272 0.337 0.272 0.328 0.272 0.319 0.272 0.309 0.272 0.299 0.272 0.289 0.272 0.279 0.272 0.268 0.272 0.257 0.272 0.246 0.272 0.234 0.272 0.223 0.272 0.211 0.272 0.199 0.272 0.187 0.272 0.175 0.272 0.162 0.272 0.149 0.272 0.137 0.272 0.124 0.272 0.111 0.272 0.098 0.272 0.084 0.272 0.071 0.272 0.058 0.272 0.044 0.272 0.031 0.272 0.018 0.272 0.004 0.272-0.009 0.272-0.023 0.272-0.036 0.272-0.050 0.272-0.063 0.272-0.076 0.272-0.090 0.272-0.103 0.272-0.116 0.272-0.129 0.272-0.142 0.272-0.155 0.272-0.167 0.272-0.18 0.272-0.192 0.272-0.204 0.272-0.216 0.272-0.228 0.272-0.239 0.272-0.25 0.272-0.262 0.272-0.272 0.272-0.283 0.272-0.293 0.272-0.303 0.272-0.313 0.272-0.323 0.272-0.332 0.272-0.341 0.272-0.35 0.272-0.358 0.272-0.366 0.272-0.373 0.272-0.381 0.272-0.388 0.272-0.394 0.272-0.401 0.272-0.407 0.273-0.412 0.272-0.417 0.272-0.422 0.272-0.427 0.272-0.431 0.272-0.434 0.272-0.438 0.272-0.44 0.272-0.443 0.272-0.445 0.272-0.447 0.272-0.448 1.36-2.245 0.272-0.447 0.273-0.446 0.272-0.444 0.272-0.441 0.272-0.439 0.272-0.435 0.272-0.432 0.272-0.428 0.272-0.424 0.272-0.419 0.272-0.414 0.272-0.408 0.272-0.403 0.272-0.396 0.272-0.39 0.272-0.383 0.272-0.376 0.272-0.368 0.272-0.36 0.273-0.352 0.272-0.344 0.272-0.335 0.272-0.326 0.272-0.316 0.272-0.307 0.272-0.297 0.272-0.286 0.272-0.276 0.272-0.265 0.272-0.254 0.272-0.243 0.272-0.231 0.272-0.22 0.272-0.208 0.272-0.196 0.272-0.183 0.272-0.171 0.273-0.159 0.272-0.146 0.272-0.133 0.272-0.12 0.272-0.107 0.272-0.094 0.272-0.081 0.272-0.067 0.272-0.054 0.272-0.041 0.272-0.027 0.272-0.014 0.272-0 0.272 0.013 0.272 0.027 0.272 0.040 0.272 0.054 0.272 0.067 0.273 0.080 0.272 0.093 0.272 0.107 0.272 0.12 0.272 0.133 0.272 0.145 0.272 0.158 0.272 0.171 0.272 0.183 0.272 0.195 0.272 0.207 0.272 0.219 0.272 0.231 0.272 0.242 0.272 0.254 0.272 0.265 0.272 0.275 0.272 0.286 0.273 0.296 0.272 0.306 0.272 0.316 0.272 0.325 0.272 0.334 0.272 0.343 0.272 0.352 0.272 0.36 0.272 0.368 0.272 0.376 0.272 0.383 0.272 0.39 0.272 0.396 0.272 0.402 0.272 0.408 0.272 0.414 0.272 0.419 0.272 0.424 0.273 0.428 0.272 0.432 0.272 0.435 0.272 0.438 0.272 0.441 0.272 0.444 0.272 0.446 0.272 0.447 0.272 0.448 1.36 2.245 0.272 0.447 0.272 0.445 0.272 0.443 0.273 0.441 0.272 0.438 0.272 0.434 0.272 0.431 0.272 0.427 0.272 0.422 0.272 0.418 0.272 0.412 0.272 0.407 0.272 0.401 0.272 0.395 0.272 0.388 0.272 0.381 0.272 0.374 0.272 0.366 0.272 0.358 0.272 0.35 0.272 0.341 0.273 0.332 0.272 0.323 0.272 0.314 0.272 0.304 0.272 0.294 0.272 0.283 0.272 0.273 0.272 0.262 0.272 0.251 0.272 0.24 0.272 0.228 0.272 0.216 0.272 0.204 0.272 0.192 0.272 0.18 0.272 0.168 0.272 0.155 0.272 0.142 0.273 0.129 0.272 0.116 0.272 0.103 0.272 0.090 0.272 0.077 0.272 0.064 0.272 0.050 0.272 0.037 0.272 0.023 0.272 0.010 0.272-0.004 0.272-0.017 0.272-0.030 0.272-0.044 0.272-0.057 0.272-0.071 0.272-0.084 0.272-0.097 0.273-0.11 0.272-0.123 0.272-0.136 0.272-0.149 0.272-0.162 0.272-0.174 0.272-0.186 0.272-0.199 0.272-0.211 0.272-0.222 0.272-0.234 0.272-0.245 0.272-0.257 0.272-0.268 0.272-0.278 0.272-0.289 0.272-0.299 0.272-0.309 0.273-0.319 0.272-0.328 0.272-0.337 0.272-0.346 0.272-0.354 0.272-0.362 0.272-0.37 0.272-0.378 0.272-0.385 0.272-0.392 0.272-0.398 0.272-0.404 0.272-0.41 0.272-0.415 0.272-0.42 0.272-0.425 0.272-0.429 0.272-0.433 0.273-0.436 0.272-0.439 0.272-0.442 0.272-0.444 0.272-0.446 0.272-0.448 0.272-0.448 1.088-1.796 0.272-0.448 0.272-0.446 0.272-0.445 0.272-0.442 0.272-0.44 0.272-0.437 0.273-0.434 0.272-0.43 0.272-0.426 0.272-0.421 0.272-0.416 0.272-0.411 0.272-0.405 0.272-0.399 0.272-0.393 0.272-0.386 0.272-0.379 0.272-0.372 0.272-0.364 0.272-0.356 0.272-0.347 0.272-0.339 0.272-0.33 0.272-0.32 0.273-0.311 0.272-0.301 0.272-0.291 0.272-0.28 0.272-0.27 0.272-0.259 0.272-0.248 0.272-0.236 0.272-0.225 0.272-0.213 0.272-0.201 0.272-0.189 0.272-0.177 0.272-0.164 0.272-0.151 0.272-0.139 0.272-0.126 0.272-0.113 0.273-0.1 0.272-0.087 0.272-0.073 0.272-0.060 0.272-0.047 0.272-0.033 0.272-0.020 0.272-0.006 0.272 0.007 0.272 0.021 0.272 0.034 0.272 0.048 0.272 0.061 0.272 0.074 0.272 0.088 0.272 0.101 0.272 0.114 0.272 0.127 0.273 0.14 0.272 0.153 0.272 0.165 0.272 0.178 0.272 0.19 0.272 0.202 0.272 0.214 0.272 0.226 0.272 0.237 0.272 0.249 0.272 0.26 0.272 0.271 0.272 0.281 0.272 0.292 0.272 0.302 0.272 0.312 0.272 0.321 0.272 0.33 0.273 0.339 0.272 0.348 0.272 0.357 0.272 0.365 0.272 0.372 0.272 0.38 0.272 0.387 0.272 0.393 0.272 0.4 0.272 0.406 0.272 0.411 0.272 0.417 0.272 0.421 0.272 0.426 0.272 0.43 0.272 0.434 0.272 0.437 0.272 0.44 0.273 0.443 0.272 0.445 0.272 0.446 0.272 0.448 0.272 0.449"></path>
</symbol>
<symbol id="telegram" viewBox="0 0 32 32">
<path fill="#039be5" style="fill: var(--color1, #039be5)" d="M32 16c0 8.837-7.163 16-16 16s-16-7.163-16-16c0-8.837 7.163-16 16-16s16 7.163 16 16z"></path>
<path fill="#fff" style="fill: var(--color2, #fff)" d="M7.321 15.653l15.427-5.948c0.716-0.259 1.341 0.175 1.109 1.257l0.001-0.001-2.627 12.375c-0.195 0.877-0.716 1.091-1.445 0.677l-4-2.948-1.929 1.859c-0.213 0.213-0.393 0.393-0.807 0.393l0.284-4.071 7.413-6.697c0.323-0.284-0.072-0.444-0.497-0.161l-9.161 5.768-3.949-1.232c-0.857-0.272-0.876-0.857 0.181-1.271z"></path>
</symbol>
<symbol id="viber" viewBox="0 0 32 32">
<path fill="#6f3faa" style="fill: var(--color1, #6f3faa)" d="M32 16c0 8.837-7.163 16-16 16s-16-7.163-16-16c0-8.837 7.163-16 16-16s16 7.163 16 16z"></path>
<path fill="#512d84" style="fill: var(--color2, #512d84)" d="M22.941 8.778c-3.895-0.941-7.796-2.041-11.79-0.643-2.586 0.97-2.586 3.771-2.478 6.141 0 0.646-0.754 1.508-0.431 2.263 0.646 2.155 1.185 4.31 3.448 5.387 0.323 0.215 0 0.646 0.216 0.97-0.108 0-0.323 0.108-0.323 0.215 0 0.516 0.232 1.306 0.078 1.816l6.875 6.872c7.068-1.126 12.592-6.879 13.37-14.058l-8.964-8.964z"></path>
<path fill="#fff" style="fill: var(--color3, #fff)" d="M24.464 11.245l-0.005-0.021c-0.427-1.728-2.355-3.583-4.125-3.969l-0.020-0.004c-2.863-0.546-5.766-0.546-8.628 0l-0.021 0.004c-1.769 0.386-3.697 2.24-4.125 3.969l-0.005 0.021c-0.529 2.414-0.529 4.861 0 7.275l0.005 0.021c0.41 1.654 2.194 3.424 3.898 3.91v1.929c0 0.698 0.851 1.041 1.335 0.537l1.955-2.032c0.424 0.024 0.848 0.037 1.272 0.037 1.441 0 2.883-0.136 4.314-0.409l0.020-0.004c1.77-0.386 3.697-2.24 4.125-3.969l0.005-0.021c0.529-2.414 0.529-4.861 0-7.275zM22.917 18.17c-0.285 1.128-1.749 2.529-2.912 2.788-1.522 0.29-3.056 0.413-4.589 0.371-0.030-0.001-0.060 0.011-0.081 0.033-0.218 0.223-1.427 1.465-1.427 1.465l-1.518 1.558c-0.111 0.116-0.306 0.037-0.306-0.123v-3.196c0-0.053-0.038-0.098-0.090-0.108-0-0-0.001-0-0.001-0-1.163-0.259-2.626-1.661-2.912-2.788-0.476-2.182-0.476-4.393 0-6.575 0.286-1.128 1.749-2.529 2.912-2.788 2.659-0.506 5.354-0.506 8.012 0 1.163 0.259 2.626 1.661 2.912 2.788 0.476 2.182 0.476 4.393-0 6.575z"></path>
<path fill="#fff" style="fill: var(--color3, #fff)" d="M18.529 19.645c-0.179-0.054-0.349-0.091-0.507-0.156-1.639-0.68-3.148-1.558-4.343-2.903-0.68-0.765-1.212-1.628-1.661-2.542-0.213-0.433-0.393-0.884-0.576-1.331-0.167-0.408 0.079-0.829 0.338-1.137 0.243-0.289 0.556-0.509 0.895-0.672 0.264-0.127 0.525-0.054 0.718 0.17 0.417 0.485 0.801 0.994 1.111 1.555 0.191 0.345 0.139 0.768-0.207 1.003-0.084 0.057-0.161 0.124-0.239 0.189-0.069 0.057-0.133 0.114-0.181 0.19-0.086 0.14-0.090 0.305-0.035 0.458 0.427 1.173 1.146 2.084 2.326 2.576 0.189 0.079 0.378 0.17 0.596 0.145 0.364-0.043 0.482-0.442 0.738-0.651 0.25-0.204 0.569-0.207 0.837-0.037s0.53 0.353 0.789 0.538c0.254 0.181 0.508 0.358 0.742 0.565 0.226 0.199 0.303 0.459 0.176 0.729-0.233 0.494-0.571 0.904-1.059 1.167-0.138 0.074-0.302 0.098-0.458 0.146-0.179-0.054 0.155-0.048 0 0z"></path>
<path fill="#fff" style="fill: var(--color3, #fff)" d="M16.004 10.339c2.144 0.060 3.906 1.483 4.283 3.603 0.064 0.361 0.087 0.73 0.116 1.097 0.012 0.154-0.075 0.301-0.242 0.303-0.172 0.002-0.249-0.142-0.26-0.296-0.022-0.305-0.037-0.612-0.079-0.914-0.222-1.597-1.496-2.919-3.086-3.203-0.239-0.043-0.484-0.054-0.727-0.079-0.153-0.016-0.354-0.025-0.388-0.216-0.028-0.16 0.106-0.287 0.258-0.295 0.041-0.002 0.083-0.001 0.124-0 2.144 0.060-0.041-0 0 0z"></path>
<path fill="#fff" style="fill: var(--color3, #fff)" d="M19.263 14.564c-0.004 0.027-0.005 0.090-0.021 0.149-0.057 0.215-0.383 0.242-0.458 0.025-0.022-0.064-0.026-0.138-0.026-0.207-0.001-0.454-0.099-0.908-0.329-1.303-0.235-0.406-0.595-0.748-1.017-0.954-0.255-0.125-0.531-0.203-0.811-0.249-0.122-0.020-0.246-0.032-0.369-0.050-0.149-0.021-0.228-0.116-0.221-0.262 0.007-0.137 0.107-0.236 0.257-0.228 0.492 0.028 0.967 0.134 1.405 0.366 0.89 0.471 1.398 1.215 1.546 2.208 0.007 0.045 0.017 0.090 0.021 0.135 0.008 0.111 0.014 0.223 0.022 0.37-0.004 0.027-0.009-0.147 0 0z"></path>
<path fill="#fff" style="fill: var(--color3, #fff)" d="M17.93 14.512c-0.179 0.003-0.275-0.096-0.294-0.261-0.013-0.115-0.023-0.231-0.050-0.342-0.054-0.22-0.171-0.423-0.356-0.558-0.087-0.064-0.186-0.11-0.29-0.14-0.132-0.038-0.268-0.028-0.399-0.060-0.143-0.035-0.221-0.15-0.199-0.284 0.020-0.122 0.139-0.217 0.272-0.207 0.831 0.060 1.426 0.49 1.51 1.469 0.006 0.069 0.013 0.142-0.002 0.208-0.026 0.113-0.11 0.17-0.192 0.175-0.179 0.003 0.082-0.005 0 0z"></path>
<path fill="#d1d1d1" style="fill: var(--color4, #d1d1d1)" d="M24.464 11.245l-0.005-0.021c-0.24-0.969-0.951-1.977-1.841-2.744l-1.204 1.067c0.716 0.57 1.329 1.36 1.503 2.049 0.476 2.182 0.476 4.393 0 6.575-0.285 1.128-1.749 2.529-2.912 2.788-1.522 0.29-3.056 0.413-4.589 0.371-0.030-0.001-0.060 0.011-0.081 0.033-0.218 0.223-1.427 1.465-1.427 1.465l-1.518 1.558c-0.111 0.116-0.306 0.037-0.306-0.123v-3.196c0-0.053-0.038-0.098-0.090-0.108-0 0-0.001-0-0.001-0-0.661-0.147-1.418-0.664-2.002-1.289l-1.189 1.054c0.743 0.808 1.701 1.461 2.636 1.728v1.929c0 0.698 0.851 1.041 1.335 0.537l1.955-2.032c0.424 0.024 0.848 0.037 1.272 0.037 1.441 0 2.883-0.136 4.314-0.409l0.020-0.004c1.77-0.386 3.697-2.24 4.125-3.969l0.005-0.021c0.529-2.414 0.529-4.861 0-7.275z"></path>
<path fill="#fff" style="fill: var(--color3, #fff)" d="M18.529 19.645c0.155-0.048-0.179-0.054 0 0v0z"></path>
<path fill="#d1d1d1" style="fill: var(--color4, #d1d1d1)" d="M19.87 17.604c-0.235-0.207-0.488-0.384-0.742-0.565-0.259-0.185-0.52-0.367-0.789-0.538s-0.588-0.167-0.837 0.037c-0.255 0.209-0.373 0.609-0.738 0.651-0.218 0.025-0.407-0.066-0.596-0.145-0.726-0.302-1.277-0.764-1.694-1.347l-0.885 0.784c0.030 0.035 0.059 0.071 0.089 0.105 1.195 1.345 2.704 2.223 4.343 2.903 0.158 0.066 0.329 0.102 0.507 0.156-0.179-0.054 0.155-0.048 0 0 0.155-0.048 0.32-0.072 0.458-0.146 0.488-0.262 0.826-0.673 1.059-1.167 0.127-0.27 0.049-0.53-0.176-0.729z"></path>
<path fill="#fff" style="fill: var(--color3, #fff)" d="M16.010 10.339c-0.002 0-0.004-0-0.005-0s0 0 0.005 0z"></path>
<path fill="#fff" style="fill: var(--color3, #fff)" d="M16.005 10.339c0.002 0 0.004 0 0.005 0 0.119 0.004 2.055 0.058-0.005-0z"></path>
<path fill="#d1d1d1" style="fill: var(--color4, #d1d1d1)" d="M19.080 11.615l-0.377 0.334c0.593 0.577 1.002 1.341 1.119 2.183 0.042 0.303 0.057 0.609 0.079 0.914 0.011 0.154 0.088 0.298 0.26 0.296 0.166-0.002 0.254-0.149 0.242-0.303-0.029-0.367-0.052-0.736-0.116-1.097-0.165-0.928-0.596-1.722-1.207-2.328z"></path>
<path fill="#d1d1d1" style="fill: var(--color4, #d1d1d1)" d="M19.22 14.059c-0.108-0.724-0.408-1.314-0.907-1.764l-0.376 0.333c0.195 0.173 0.363 0.376 0.492 0.599 0.229 0.395 0.328 0.849 0.329 1.303 0 0.069 0.003 0.143 0.026 0.207 0.075 0.217 0.402 0.19 0.458-0.025 0.016-0.059 0.018-0.122 0.021-0.149-0.004 0.027-0.009-0.147 0 0-0.009-0.147-0.014-0.259-0.022-0.37-0.003-0.045-0.014-0.090-0.021-0.135z"></path>
<path fill="#fff" style="fill: var(--color3, #fff)" d="M19.263 14.564c-0.009-0.147-0.004 0.027 0 0v0z"></path>
<path fill="#fff" style="fill: var(--color3, #fff)" d="M17.93 14.512c0.003-0 0.006-0.002 0.008-0.002-0.008 0-0.019 0-0.031 0.001 0.008 0 0.015 0.001 0.023 0.001z"></path>
<path fill="#fff" style="fill: var(--color3, #fff)" d="M17.93 14.512c-0.008 0-0.015-0.001-0.023-0.001-0.039 0.001-0.079 0.003 0.023 0.001z"></path>
<path fill="#fff" style="fill: var(--color3, #fff)" d="M17.938 14.51c-0.003 0-0.006 0.002-0.008 0.002 0.021-0.001 0.019-0.002 0.008-0.002z"></path>
<path fill="#d1d1d1" style="fill: var(--color4, #d1d1d1)" d="M17.551 12.97l-0.383 0.339c0.021 0.013 0.042 0.026 0.062 0.041 0.185 0.135 0.302 0.338 0.356 0.558 0.027 0.112 0.038 0.228 0.050 0.342 0.018 0.157 0.107 0.254 0.271 0.259 0.012-0 0.024-0.001 0.031-0.001 0.079-0.009 0.158-0.064 0.183-0.173 0.015-0.066 0.008-0.139 0.002-0.208-0.048-0.547-0.255-0.923-0.573-1.158z"></path>
</symbol>
<symbol id="fish" viewBox="0 0 32 32">
<path fill="#d9d9d9" style="fill: var(--color1, #d9d9d9)" d="M32 16c0 8.837-7.163 16-16 16s-16-7.163-16-16c0-8.837 7.163-16 16-16s16 7.163 16 16z"></path>
</symbol>
<symbol id="ArrowD" viewBox="0 0 13 32">
<path d="M6.098 31.448c0.167 0.167 0.437 0.167 0.603 0l2.715-2.715c0.167-0.167 0.167-0.437 0-0.603s-0.437-0.167-0.603 0l-2.414 2.414-2.414-2.414c-0.167-0.167-0.437-0.167-0.603 0s-0.167 0.437 0 0.603l2.715 2.715zM5.973 0.445c0 0.236 0.191 0.427 0.427 0.427s0.427-0.191 0.427-0.427h-0.853zM6.827 4.005c0-0.236-0.191-0.427-0.427-0.427s-0.427 0.191-0.427 0.427h0.853zM5.973 4.894c0 0.236 0.191 0.427 0.427 0.427s0.427-0.191 0.427-0.427h-0.853zM6.827 8.454c0-0.236-0.191-0.427-0.427-0.427s-0.427 0.191-0.427 0.427h0.853zM5.973 9.344c0 0.236 0.191 0.427 0.427 0.427s0.427-0.191 0.427-0.427h-0.853zM6.827 12.904c0-0.236-0.191-0.427-0.427-0.427s-0.427 0.191-0.427 0.427h0.853zM5.973 13.794c0 0.236 0.191 0.427 0.427 0.427s0.427-0.191 0.427-0.427h-0.853zM6.827 17.353c0-0.236-0.191-0.427-0.427-0.427s-0.427 0.191-0.427 0.427h0.853zM5.973 18.243c0 0.236 0.191 0.427 0.427 0.427s0.427-0.191 0.427-0.427h-0.853zM6.827 21.803c0-0.236-0.191-0.427-0.427-0.427s-0.427 0.191-0.427 0.427h0.853zM5.973 22.693c0 0.236 0.191 0.427 0.427 0.427s0.427-0.191 0.427-0.427h-0.853zM6.827 26.252c0-0.236-0.191-0.427-0.427-0.427s-0.427 0.191-0.427 0.427h0.853zM5.973 27.142c0 0.236 0.191 0.427 0.427 0.427s0.427-0.191 0.427-0.427h-0.853zM6.827 30.702c0-0.236-0.191-0.427-0.427-0.427s-0.427 0.191-0.427 0.427h0.853zM5.973 0v0.445h0.853v-0.445h-0.853zM5.973 4.005v0.89h0.853v-0.89h-0.853zM5.973 8.454v0.89h0.853v-0.89h-0.853zM5.973 12.904v0.89h0.853v-0.89h-0.853zM5.973 17.353v0.89h0.853v-0.89h-0.853zM5.973 21.803v0.89h0.853v-0.89h-0.853zM5.973 26.252v0.89h0.853v-0.89h-0.853zM5.973 30.702v0.445h0.853v-0.445h-0.853zM5.797 31.75c0.333 0.333 0.874 0.333 1.207 0l5.431-5.431c0.333-0.333 0.333-0.874 0-1.207s-0.873-0.333-1.207 0l-4.827 4.827-4.827-4.827c-0.333-0.333-0.874-0.333-1.207 0s-0.333 0.873 0 1.207l5.431 5.431zM5.547 0.445c0 0.471 0.382 0.853 0.853 0.853s0.853-0.382 0.853-0.853h-1.707zM7.253 4.005c0-0.471-0.382-0.853-0.853-0.853s-0.853 0.382-0.853 0.853h1.707zM5.547 4.894c0 0.471 0.382 0.853 0.853 0.853s0.853-0.382 0.853-0.853h-1.707zM7.253 8.454c0-0.471-0.382-0.853-0.853-0.853s-0.853 0.382-0.853 0.853h1.707zM5.547 9.344c0 0.471 0.382 0.853 0.853 0.853s0.853-0.382 0.853-0.853h-1.707zM7.253 12.904c0-0.471-0.382-0.853-0.853-0.853s-0.853 0.382-0.853 0.853h1.707zM5.547 13.794c0 0.471 0.382 0.853 0.853 0.853s0.853-0.382 0.853-0.853h-1.707zM7.253 17.353c0-0.471-0.382-0.853-0.853-0.853s-0.853 0.382-0.853 0.853h1.707zM5.547 18.243c0 0.471 0.382 0.853 0.853 0.853s0.853-0.382 0.853-0.853h-1.707zM7.253 21.803c0-0.471-0.382-0.853-0.853-0.853s-0.853 0.382-0.853 0.853h1.707zM5.547 22.693c0 0.471 0.382 0.853 0.853 0.853s0.853-0.382 0.853-0.853h-1.707zM7.253 26.252c0-0.471-0.382-0.853-0.853-0.853s-0.853 0.382-0.853 0.853h1.707zM5.547 27.142c0 0.471 0.382 0.853 0.853 0.853s0.853-0.382 0.853-0.853h-1.707zM7.253 30.702c0-0.471-0.382-0.853-0.853-0.853s-0.853 0.382-0.853 0.853h1.707zM5.547 0v0.445h1.707v-0.445h-1.707zM5.547 4.005v0.89h1.707v-0.89h-1.707zM5.547 8.454v0.89h1.707v-0.89h-1.707zM5.547 12.904v0.89h1.707v-0.89h-1.707zM5.547 17.353v0.89h1.707v-0.89h-1.707zM5.547 21.803v0.89h1.707v-0.89h-1.707zM5.547 26.252v0.89h1.707v-0.89h-1.707zM5.547 30.702v0.445h1.707v-0.445h-1.707z"></path>
</symbol>
<symbol id="fishD" viewBox="0 0 23 32">
<path fill="#d9d9d9" style="fill: var(--color1, #d9d9d9)" d="M22.939 11.47c0 6.334-5.135 11.47-11.47 11.47s-11.47-5.135-11.47-11.47c0-6.334 5.135-11.47 11.47-11.47s11.47 5.135 11.47 11.47z"></path>
<path fill="#000" style="fill: var(--color2, #000)" d="M11.388 31.852c0.045 0.045 0.117 0.045 0.162 0l0.73-0.73c0.045-0.045 0.045-0.117 0-0.162s-0.117-0.045-0.162 0l-0.649 0.649-0.649-0.649c-0.045-0.045-0.117-0.045-0.162 0s-0.045 0.117 0 0.162l0.73 0.73zM11.355 23.517c0 0.063 0.051 0.115 0.115 0.115s0.115-0.051 0.115-0.115h-0.229zM11.584 24.474c0-0.063-0.051-0.115-0.115-0.115s-0.115 0.051-0.115 0.115h0.229zM11.355 24.714c0 0.063 0.051 0.115 0.115 0.115s0.115-0.051 0.115-0.115h-0.229zM11.584 25.67c0-0.063-0.051-0.115-0.115-0.115s-0.115 0.051-0.115 0.115h0.229zM11.355 25.91c0 0.063 0.051 0.115 0.115 0.115s0.115-0.051 0.115-0.115h-0.229zM11.584 26.867c0-0.063-0.051-0.115-0.115-0.115s-0.115 0.051-0.115 0.115h0.229zM11.355 27.106c0 0.063 0.051 0.115 0.115 0.115s0.115-0.051 0.115-0.115h-0.229zM11.584 28.063c0-0.063-0.051-0.115-0.115-0.115s-0.115 0.051-0.115 0.115h0.229zM11.355 28.302c0 0.063 0.051 0.115 0.115 0.115s0.115-0.051 0.115-0.115h-0.229zM11.584 29.259c0-0.063-0.051-0.115-0.115-0.115s-0.115 0.051-0.115 0.115h0.229zM11.355 29.498c0 0.063 0.051 0.115 0.115 0.115s0.115-0.051 0.115-0.115h-0.229zM11.584 30.455c0-0.063-0.051-0.115-0.115-0.115s-0.115 0.051-0.115 0.115h0.229zM11.355 30.694c0 0.063 0.051 0.115 0.115 0.115s0.115-0.051 0.115-0.115h-0.229zM11.584 31.651c0-0.063-0.051-0.115-0.115-0.115s-0.115 0.051-0.115 0.115h0.229zM11.355 23.398v0.12h0.229v-0.12h-0.229zM11.355 24.474v0.239h0.229v-0.239h-0.229zM11.355 25.67v0.239h0.229v-0.239h-0.229zM11.355 26.867v0.239h0.229v-0.239h-0.229zM11.355 28.063v0.239h0.229v-0.239h-0.229zM11.355 29.259v0.239h0.229v-0.239h-0.229zM11.355 30.455v0.239h0.229v-0.239h-0.229zM11.355 31.651v0.12h0.229v-0.12h-0.229zM11.307 31.933c0.090 0.090 0.235 0.090 0.324 0l1.46-1.46c0.090-0.090 0.090-0.235 0-0.324s-0.235-0.090-0.324 0l-1.298 1.298-1.298-1.298c-0.090-0.090-0.235-0.090-0.324 0s-0.090 0.235 0 0.324l1.46 1.46zM11.24 23.517c0 0.127 0.103 0.229 0.229 0.229s0.229-0.103 0.229-0.229h-0.459zM11.699 24.474c0-0.127-0.103-0.229-0.229-0.229s-0.229 0.103-0.229 0.229h0.459zM11.24 24.714c0 0.127 0.103 0.229 0.229 0.229s0.229-0.103 0.229-0.229h-0.459zM11.699 25.67c0-0.127-0.103-0.229-0.229-0.229s-0.229 0.103-0.229 0.229h0.459zM11.24 25.91c0 0.127 0.103 0.229 0.229 0.229s0.229-0.103 0.229-0.229h-0.459zM11.699 26.867c0-0.127-0.103-0.229-0.229-0.229s-0.229 0.103-0.229 0.229h0.459zM11.24 27.106c0 0.127 0.103 0.229 0.229 0.229s0.229-0.103 0.229-0.229h-0.459zM11.699 28.063c0-0.127-0.103-0.229-0.229-0.229s-0.229 0.103-0.229 0.229h0.459zM11.24 28.302c0 0.127 0.103 0.229 0.229 0.229s0.229-0.103 0.229-0.229h-0.459zM11.699 29.259c0-0.127-0.103-0.229-0.229-0.229s-0.229 0.103-0.229 0.229h0.459zM11.24 29.498c0 0.127 0.103 0.229 0.229 0.229s0.229-0.103 0.229-0.229h-0.459zM11.699 30.455c0-0.127-0.103-0.229-0.229-0.229s-0.229 0.103-0.229 0.229h0.459zM11.24 30.694c0 0.127 0.103 0.229 0.229 0.229s0.229-0.103 0.229-0.229h-0.459zM11.699 31.651c0-0.127-0.103-0.229-0.229-0.229s-0.229 0.103-0.229 0.229h0.459zM11.24 23.398v0.12h0.459v-0.12h-0.459zM11.24 24.474v0.239h0.459v-0.239h-0.459zM11.24 25.67v0.239h0.459v-0.239h-0.459zM11.24 26.867v0.239h0.459v-0.239h-0.459zM11.24 28.063v0.239h0.459v-0.239h-0.459zM11.24 29.259v0.239h0.459v-0.239h-0.459zM11.24 30.455v0.239h0.459v-0.239h-0.459zM11.24 31.651v0.12h0.459v-0.12h-0.459z"></path>
</symbol>
</defs>
</svg>
