<svg width="1172" height="40" viewBox="0 0 1172 40" fill="none" xmlns="http://www.w3.org/2000/svg">
<g id="&#208;&#161;&#208;&#191;&#208;&#184;&#209;&#128;&#208;&#176;&#208;&#187;&#209;&#140;">
<path id="Vector" d="M1 20.0954L2.86603 20.6571L4.73206 21.2183L6.59809 21.7785L8.46411 22.3371L10.3301 22.8938L12.1962 23.4479L14.0622 23.9991L15.9282 24.5467L17.7943 25.0903L19.6603 25.6294L21.5263 26.1635L23.3923 26.6922L25.2584 27.2149L27.1244 27.7312L28.9904 28.2407L30.8565 28.7428L32.7225 29.2371L34.5885 29.7232L36.4545 30.2007L38.3206 30.669L40.1866 31.1279L42.0526 31.5768L43.9187 32.0153L45.7847 32.4432L47.6507 32.8599L49.5167 33.2652L51.3828 33.6586L53.2488 34.0398L55.1148 34.4084L56.9809 34.7642L58.8469 35.1067L60.7129 35.4358L62.5789 35.751L64.445 36.0522L66.311 36.339L68.177 36.6112L70.0431 36.8685L71.9091 37.1107L73.7751 37.3376L75.6411 37.549L77.5072 37.7447L79.3732 37.9245L81.2392 38.0882L83.1053 38.2358L84.9713 38.367L86.8373 38.4818L88.7034 38.5801L90.5694 38.6617L92.4354 38.7266L94.3014 38.7747L96.1675 38.8061L98.0335 38.8205L99.8995 38.8182L101.766 38.799L103.632 38.7629L105.498 38.7101L107.364 38.6405L109.23 38.5542L111.096 38.4513L112.962 38.3319L114.828 38.1961L116.694 38.044L118.56 37.8757L120.426 37.6914L122.292 37.4913L124.158 37.2756L126.024 37.0443L127.89 36.7979L129.756 36.5364L131.622 36.2601L133.488 35.9692L135.354 35.6641L137.22 35.3449L139.086 35.0121L140.952 34.6658L142.818 34.3064L144.684 33.9342L146.55 33.5495L148.416 33.1528L150.282 32.7443L152.148 32.3244L154.014 31.8935L155.88 31.452L157.746 31.0003L159.612 30.5387L161.478 30.0678L163.344 29.5879L165.211 29.0994L167.077 28.6028L168.943 28.0986L170.809 27.5872L172.675 27.069L174.541 26.5446L176.407 26.0143L178.273 25.4788L180.139 24.9384L182.005 24.3936L183.871 23.8449L185.737 23.2929L187.603 22.738L189.469 22.1808L191.335 21.6216L193.201 21.0611L195.067 20.4997L196.933 19.9379L198.799 19.3763L200.665 18.8154L202.531 18.2556L204.397 17.6974L206.263 17.1414L208.129 16.5881L209.995 16.0379L211.861 15.4913L213.727 14.9489L215.593 14.4112L217.459 13.8785L219.325 13.3515L221.191 12.8305L223.057 12.3161L224.923 11.8086L226.789 11.3086L228.656 10.8166L230.522 10.3328L232.388 9.85791L234.254 9.39218L236.12 8.93608L237.986 8.49003L239.852 8.05442L241.718 7.62965L243.584 7.2161L245.45 6.81413L247.316 6.42412L249.182 6.04641L251.048 5.68135L252.914 5.32926L254.78 4.99045L256.646 4.66524L258.512 4.35392L260.378 4.05676L262.244 3.77403L264.11 3.50599L265.976 3.25289L267.842 3.01494L269.708 2.79236L271.574 2.58535L273.44 2.3941L275.306 2.21878L277.172 2.05955L279.038 1.91654L280.904 1.7899L282.77 1.67974L284.636 1.58614L286.502 1.5092L288.368 1.44899L290.234 1.40556L292.1 1.37895L293.967 1.36918L295.833 1.37626L297.699 1.40019L299.565 1.44095L301.431 1.49849L303.297 1.57277L305.163 1.66372L307.029 1.77125L308.895 1.89528L310.761 2.03568L312.627 2.19234L314.493 2.36511L316.359 2.55383L318.225 2.75834L320.091 2.97845L321.957 3.21397L323.823 3.46468L325.689 3.73035L327.555 4.01076L329.421 4.30563L331.287 4.61472L333.153 4.93774L335.019 5.2744L336.885 5.6244L338.751 5.98742L340.617 6.36313L342.483 6.75121L344.349 7.15129L346.215 7.56303L348.081 7.98604L349.947 8.41995L351.813 8.86436L353.679 9.31888L355.545 9.7831L357.411 10.2566L359.277 10.739L361.144 11.2297L363.01 11.7285L364.876 12.2348L366.742 12.7481L368.608 13.2681L370.474 13.7942L372.34 14.326L374.206 14.863L376.072 15.4047L377.938 15.9506L379.804 16.5002L381.67 17.0531L383.536 17.6087L385.402 18.1665L387.268 18.7261L389.134 19.2869L391 19.8485L392.866 20.4102L394.732 20.9717L396.598 21.5324L398.464 22.0918L400.33 22.6494L402.196 23.2047L404.062 23.7572L405.928 24.3064L407.794 24.8519L409.66 25.393L411.526 25.9294L413.392 26.4605L415.258 26.9859L417.124 27.5051L418.99 28.0176L420.856 28.523L422.722 29.0208L424.588 29.5106L426.455 29.9919L428.321 30.4643L430.187 30.9274L432.053 31.3807L433.919 31.8239L435.785 32.2565L437.651 32.6782L439.517 33.0885L441.383 33.4872L443.249 33.8737L445.115 34.2479L446.981 34.6094L448.847 34.9578L450.713 35.2928L452.579 35.6142L454.445 35.9216L456.311 36.2147L458.177 36.4933L460.043 36.7572L461.909 37.0061L463.775 37.2398L465.641 37.458L467.507 37.6606L469.373 37.8474L471.239 38.0182L473.105 38.1729L474.971 38.3114L476.837 38.4334L478.703 38.5389L480.569 38.6279L482.435 38.7001L484.301 38.7556L486.167 38.7944L488.033 38.8163L489.9 38.8213L491.766 38.8095L493.632 38.7808L495.498 38.7354L497.364 38.6731L499.23 38.5942L501.096 38.4986L502.962 38.3864L504.828 38.2578L506.694 38.1128L508.56 37.9516L510.426 37.7744L512.292 37.5812L514.158 37.3723L516.024 37.1479L517.89 36.9081L519.756 36.6531L521.622 36.3833L523.488 36.0988L525.354 35.7999L527.22 35.4869L529.086 35.16L530.952 34.8196L532.818 34.4659L534.684 34.0993L536.55 33.7201L538.416 33.3286L540.282 32.9252L542.148 32.5103L544.014 32.0842L545.88 31.6473L547.746 31.2L549.612 30.7427L551.478 30.2759L553.344 29.7999L555.21 29.3151L557.077 28.822L558.943 28.3211L560.809 27.8128L562.675 27.2976L564.541 26.7758L566.407 26.2481L568.273 25.7148L570.139 25.1764L572.005 24.6335L573.871 24.0865L575.737 23.5359L577.603 22.9822L579.469 22.4259L581.335 21.8676L583.201 21.3076L585.067 20.7465L586.933 20.1849L588.799 19.6231L590.665 19.0618L592.531 18.5014L594.397 17.9425L596.263 17.3855L598.129 16.8309L599.995 16.2793L601.861 15.7311L603.727 15.1868L605.593 14.6469L607.459 14.112L609.325 13.5824L611.191 13.0587L613.057 12.5413L614.923 12.0308L616.789 11.5274L618.656 11.0318L620.522 10.5444L622.388 10.0655L624.254 9.59571L626.12 9.13533L627.986 8.68481L629.852 8.24457L631.718 7.81498L633.584 7.39645L635.45 6.98935L637.316 6.59404L639.182 6.21088L641.048 5.84022L642.914 5.48239L644.78 5.1377L646.646 4.80648L648.512 4.48902L650.378 4.1856L652.244 3.8965L654.11 3.62197L655.976 3.36228L657.842 3.11764L659.708 2.88828L661.574 2.6744L663.44 2.4762L665.306 2.29386L667.172 2.12754L669.038 1.97739L670.904 1.84354L672.77 1.72612L674.636 1.62523L676.502 1.54096L678.368 1.47339L680.234 1.42258L682.1 1.38857L683.966 1.3714L685.833 1.37107L687.699 1.3876L689.565 1.42097L691.431 1.47114L693.297 1.53807L695.163 1.6217L697.029 1.72195L698.895 1.83874L700.761 1.97196L702.627 2.12149L704.493 2.2872L706.359 2.46893L708.225 2.66652L710.091 2.8798L711.957 3.10857L713.823 3.35263L715.689 3.61176L717.555 3.88572L719.421 4.17426L721.287 4.47714L723.153 4.79407L725.019 5.12477L726.885 5.46895L728.751 5.82628L730.617 6.19646L732.483 6.57915L734.349 6.974L736.215 7.38065L738.081 7.79875L739.947 8.22792L741.813 8.66777L743.679 9.1179L745.545 9.57791L747.411 10.0474L749.278 10.5259L751.144 11.013L753.01 11.5083L754.876 12.0114L756.742 12.5217L758.608 13.0388L760.474 13.5623L762.34 14.0916L764.206 14.6264L766.072 15.166L767.938 15.7101L769.804 16.2582L771.67 16.8097L773.536 17.3642L775.402 17.9211L777.268 18.48L779.134 19.0403L781 19.6016L782.866 20.1633L784.732 20.725L786.598 21.2861L788.464 21.8462L790.33 22.4046L792.196 22.961L794.062 23.5148L795.928 24.0655L797.794 24.6127L799.66 25.1557L801.526 25.6943L803.392 26.2278L805.258 26.7557L807.124 27.2777L808.99 27.7932L810.856 28.3018L812.722 28.803L814.588 29.2964L816.455 29.7815L818.321 30.2578L820.187 30.725L822.053 31.1827L823.919 31.6304L825.785 32.0677L827.651 32.4942L829.517 32.9096L831.383 33.3134L833.249 33.7053L835.115 34.085L836.981 34.4521L838.847 34.8063L840.713 35.1473L842.579 35.4747L844.445 35.7882L846.311 36.0876L848.177 36.3727L850.043 36.6431L851.909 36.8986L853.775 37.139L855.641 37.364L857.507 37.5735L859.373 37.7673L861.239 37.9451L863.105 38.1069L864.971 38.2525L866.837 38.3818L868.703 38.4946L870.569 38.5908L872.435 38.6704L874.301 38.7333L876.167 38.7794L878.033 38.8087L879.9 38.8212L881.766 38.8168L883.632 38.7955L885.498 38.7574L887.364 38.7026L889.23 38.6309L891.096 38.5426L892.962 38.4377L894.828 38.3163L896.694 38.1785L898.56 38.0245L900.426 37.8542L902.292 37.6681L904.158 37.466L906.024 37.2484L907.89 37.0153L909.756 36.767L911.622 36.5037L913.488 36.2256L915.354 35.9331L917.22 35.6262L919.086 35.3054L920.952 34.9709L922.818 34.623L924.684 34.262L926.55 33.8883L928.416 33.5022L930.282 33.104L932.148 32.6941L934.014 32.2728L935.88 31.8406L937.746 31.3979L939.612 30.9449L941.478 30.4822L943.344 30.0102L945.211 29.5292L947.077 29.0397L948.943 28.5422L950.809 28.0371L952.675 27.5248L954.541 27.0059L956.407 26.4807L958.273 25.9498L960.139 25.4136L962.005 24.8727L963.871 24.3274L965.737 23.7783L967.603 23.2259L969.469 22.6707L971.335 22.1132L973.201 21.5539L975.067 20.9932L976.933 20.4317L978.799 19.87L980.665 19.3084L982.531 18.7476L984.397 18.1879L986.263 17.63L988.129 17.0743L989.995 16.5213L991.861 15.9715L993.727 15.4255L995.593 14.8836L997.459 14.3465L999.325 13.8145L1001.19 13.2881L1003.06 12.7679L1004.92 12.2543L1006.79 11.7477L1008.66 11.2487L1010.52 10.7576L1012.39 10.2749L1014.25 9.80106L1016.12 9.33648L1017.99 8.88158L1019.85 8.43677L1021.72 8.00245L1023.58 7.57902L1025.45 7.16684L1027.32 6.76631L1029.18 6.37777L1031.05 6.00157L1032.91 5.63806L1034.78 5.28756L1036.65 4.95038L1038.51 4.62683L1040.38 4.31721L1042.24 4.02178L1044.11 3.74082L1045.98 3.47457L1047.84 3.22329L1049.71 2.98719L1051.57 2.76648L1053.44 2.56137L1055.31 2.37204L1057.17 2.19866L1059.04 2.04138L1060.9 1.90035L1062.77 1.7757L1064.64 1.66753L1066.5 1.57594L1068.37 1.50103L1070.23 1.44284L1072.1 1.40144L1073.97 1.37687L1075.83 1.36914L1077.7 1.37826L1079.56 1.40423L1081.43 1.44702L1083.3 1.50659L1085.16 1.58289L1087.03 1.67585L1088.89 1.78538L1090.76 1.91139L1092.63 2.05377L1094.49 2.21238L1096.36 2.38709L1098.22 2.57773L1100.09 2.78414L1101.96 3.00613L1103.82 3.2435L1105.69 3.49603L1107.55 3.7635L1109.42 4.04566L1111.29 4.34228L1113.15 4.65306L1115.02 4.97775L1116.89 5.31604L1118.75 5.66763L1120.62 6.0322L1122.48 6.40943L1124.35 6.79898L1126.22 7.20049L1128.08 7.61361L1129.95 8.03796L1131.81 8.47316L1133.68 8.91882L1135.55 9.37454L1137.41 9.8399L1139.28 10.3145L1141.14 10.7979L1143.01 11.2897L1144.88 11.7893L1146.74 12.2965L1148.61 12.8107L1150.47 13.3314L1152.34 13.8583L1154.21 14.3907L1156.07 14.9283L1157.94 15.4705L1159.8 16.0169L1161.67 16.5669L1163.54 17.1202L1165.4 17.6761L1167.27 18.2342L1169.13 18.7939L1171 19.3548" stroke="black"/>
</g>
</svg>
