<svg width="1172" height="39" viewBox="0 0 1172 39" fill="none" xmlns="http://www.w3.org/2000/svg">
<rect width="1172" height="39" fill="#E5E5E5"/>
<g id="HEAD">
<rect width="1600" height="3450" transform="translate(-214 -1288)" fill="white"/>
<g id="&#208;&#161;&#208;&#191;&#208;&#184;&#209;&#128;&#208;&#176;&#208;&#187;&#209;&#140;">
<path id="Vector" d="M1 21.5001L2.86603 21.9951L4.73206 22.4896L6.59809 22.9832L8.46411 23.4754L10.3301 23.9659L12.1962 24.4542L14.0622 24.9398L15.9282 25.4223L17.7943 25.9013L19.6603 26.3763L21.5263 26.8469L23.3923 27.3127L25.2584 27.7733L27.1244 28.2283L28.9904 28.6771L30.8565 29.1196L32.7225 29.5551L34.5885 29.9835L36.4545 30.4042L38.3206 30.8168L40.1866 31.2211L42.0526 31.6167L43.9187 32.0031L45.7847 32.3801L47.6507 32.7473L49.5167 33.1044L51.3828 33.451L53.2488 33.7869L55.1148 34.1117L56.9809 34.4252L58.8469 34.727L60.7129 35.0169L62.5789 35.2947L64.445 35.5601L66.311 35.8128L68.177 36.0526L70.0431 36.2793L71.9091 36.4927L73.7751 36.6927L75.6411 36.8789L77.5072 37.0514L79.3732 37.2098L81.2392 37.3541L83.1053 37.4841L84.9713 37.5997L86.8373 37.7009L88.7034 37.7874L90.5694 37.8594L92.4354 37.9165L94.3014 37.959L96.1675 37.9866L98.0335 37.9993L99.8995 37.9973L101.766 37.9803L103.632 37.9486L105.498 37.902L107.364 37.8407L109.23 37.7647L111.096 37.674L112.962 37.5688L114.828 37.4491L116.694 37.3151L118.56 37.1668L120.426 37.0044L122.292 36.8281L124.158 36.638L126.024 36.4343L127.89 36.2171L129.756 35.9867L131.622 35.7432L133.488 35.487L135.354 35.2181L137.22 34.9369L139.086 34.6436L140.952 34.3385L142.818 34.0218L144.684 33.6938L146.55 33.3549L148.416 33.0053L150.282 32.6454L152.148 32.2754L154.014 31.8957L155.88 31.5067L157.746 31.1087L159.612 30.702L161.478 30.2871L163.344 29.8642L165.211 29.4338L167.077 28.9963L168.943 28.552L170.809 28.1014L172.675 27.6448L174.541 27.1827L176.407 26.7155L178.273 26.2436L180.139 25.7674L182.005 25.2874L183.871 24.804L185.737 24.3176L187.603 23.8286L189.469 23.3376L191.335 22.8449L193.201 22.3511L195.067 21.8564L196.933 21.3614L198.799 20.8666L200.665 20.3723L202.531 19.879L204.397 19.3872L206.263 18.8973L208.129 18.4098L209.995 17.925L211.861 17.4434L213.727 16.9655L215.593 16.4917L217.459 16.0223L219.325 15.5579L221.191 15.0989L223.057 14.6456L224.923 14.1985L226.789 13.7579L228.656 13.3244L230.522 12.8981L232.388 12.4797L234.254 12.0693L236.12 11.6674L237.986 11.2744L239.852 10.8906L241.718 10.5163L243.584 10.1519L245.45 9.79771L247.316 9.45407L249.182 9.12126L251.048 8.79959L252.914 8.48935L254.78 8.19082L256.646 7.90427L258.512 7.62996L260.378 7.36812L262.244 7.11901L264.11 6.88283L265.976 6.65981L267.842 6.45015L269.708 6.25403L271.574 6.07163L273.44 5.90311L275.306 5.74864L277.172 5.60833L279.038 5.48233L280.904 5.37074L282.77 5.27367L284.636 5.1912L286.502 5.12341L288.368 5.07036L290.234 5.03209L292.1 5.00864L293.967 5.00003L295.833 5.00628L297.699 5.02736L299.565 5.06327L301.431 5.11397L303.297 5.17942L305.163 5.25956L307.029 5.35431L308.895 5.46359L310.761 5.5873L312.627 5.72534L314.493 5.87757L316.359 6.04386L318.225 6.22406L320.091 6.418L321.957 6.62552L323.823 6.84643L325.689 7.08052L327.555 7.32759L329.421 7.58741L331.287 7.85976L333.153 8.14438L335.019 8.44102L336.885 8.74941L338.751 9.06927L340.617 9.40033L342.483 9.74227L344.349 10.0948L346.215 10.4576L348.081 10.8303L349.947 11.2126L351.813 11.6042L353.679 12.0047L355.545 12.4137L357.411 12.831L359.277 13.256L361.144 13.6884L363.01 14.1279L364.876 14.574L366.742 15.0263L368.608 15.4845L370.474 15.948L372.34 16.4166L374.206 16.8897L376.072 17.367L377.938 17.848L379.804 18.3323L381.67 18.8195L383.536 19.3091L385.402 19.8006L387.268 20.2937L389.134 20.7878L391 21.2826L392.866 21.7776L394.732 22.2723L396.598 22.7664L398.464 23.2593L400.33 23.7506L402.196 24.2399L404.062 24.7267L405.928 25.2106L407.794 25.6912L409.66 26.168L411.526 26.6406L413.392 27.1086L415.258 27.5715L417.124 28.029L418.99 28.4806L420.856 28.9259L422.722 29.3646L424.588 29.7961L426.455 30.2202L428.321 30.6365L430.187 31.0445L432.053 31.4439L433.919 31.8344L435.785 32.2156L437.651 32.5871L439.517 32.9487L441.383 33.3L443.249 33.6406L445.115 33.9703L446.981 34.2888L448.847 34.5958L450.713 34.891L452.579 35.1741L454.445 35.445L456.311 35.7033L458.177 35.9488L460.043 36.1813L461.909 36.4006L463.775 36.6065L465.641 36.7988L467.507 36.9773L469.373 37.1419L471.239 37.2924L473.105 37.4287L474.971 37.5507L476.837 37.6582L478.703 37.7512L480.569 37.8296L482.435 37.8932L484.301 37.9421L486.167 37.9763L488.033 37.9956L489.9 38L491.766 37.9896L493.632 37.9644L495.498 37.9243L497.364 37.8695L499.23 37.7999L501.096 37.7156L502.962 37.6168L504.828 37.5035L506.694 37.3757L508.56 37.2337L510.426 37.0775L512.292 36.9073L514.158 36.7233L516.024 36.5255L517.89 36.3142L519.756 36.0896L521.622 35.8518L523.488 35.6012L525.354 35.3378L527.22 35.062L529.086 34.774L530.952 34.474L532.818 34.1624L534.684 33.8394L536.55 33.5052L538.416 33.1603L540.282 32.8048L542.148 32.4392L544.014 32.0638L545.88 31.6788L547.746 31.2847L549.612 30.8818L551.478 30.4704L553.344 30.051L555.21 29.6239L557.077 29.1894L558.943 28.748L560.809 28.3002L562.675 27.8462L564.541 27.3864L566.407 26.9214L568.273 26.4515L570.139 25.9772L572.005 25.4988L573.871 25.0168L575.737 24.5317L577.603 24.0438L579.469 23.5537L581.335 23.0617L583.201 22.5682L585.067 22.0739L586.933 21.579L588.799 21.084L590.665 20.5894L592.531 20.0957L594.397 19.6032L596.263 19.1124L598.129 18.6237L599.995 18.1377L601.861 17.6546L603.727 17.1751L605.593 16.6994L607.459 16.228L609.325 15.7614L611.191 15.3L613.057 14.8441L614.923 14.3942L616.789 13.9507L618.656 13.514L620.522 13.0845L622.388 12.6626L624.254 12.2486L626.12 11.843L627.986 11.446L629.852 11.0581L631.718 10.6796L633.584 10.3108L635.45 9.9521L637.316 9.60379L639.182 9.26618L641.048 8.93958L642.914 8.62428L644.78 8.32057L646.646 8.02872L648.512 7.749L650.378 7.48165L652.244 7.22692L654.11 6.98503L655.976 6.7562L657.842 6.54064L659.708 6.33855L661.574 6.1501L663.44 5.97546L665.306 5.81479L667.172 5.66824L669.038 5.53594L670.904 5.41801L672.77 5.31454L674.636 5.22565L676.502 5.15139L678.368 5.09186L680.234 5.04708L682.1 5.01712L683.966 5.00199L685.833 5.0017L687.699 5.01627L689.565 5.04566L691.431 5.08987L693.297 5.14884L695.163 5.22253L697.029 5.31087L698.895 5.41378L700.761 5.53116L702.627 5.66291L704.493 5.80892L706.359 5.96905L708.225 6.14315L710.091 6.33108L711.957 6.53266L713.823 6.7477L715.689 6.97602L717.555 7.21742L719.421 7.47166L721.287 7.73853L723.153 8.01779L725.019 8.30918L726.885 8.61244L728.751 8.9273L730.617 9.25347L732.483 9.59066L734.349 9.93857L736.215 10.2969L738.081 10.6653L739.947 11.0434L741.813 11.431L743.679 11.8276L745.545 12.2329L747.411 12.6466L749.278 13.0682L751.144 13.4975L753.01 13.9339L754.876 14.3771L756.742 14.8268L758.608 15.2824L760.474 15.7436L762.34 16.2101L764.206 16.6813L766.072 17.1568L767.938 17.6362L769.804 18.1191L771.67 18.6051L773.536 19.0936L775.402 19.5843L777.268 20.0768L779.134 20.5705L781 21.0651L782.866 21.56L784.732 22.0549L786.598 22.5493L788.464 23.0428L790.33 23.5349L792.196 24.0251L794.062 24.5131L795.928 24.9983L797.794 25.4804L799.66 25.9589L801.526 26.4335L803.392 26.9035L805.258 27.3687L807.124 27.8287L808.99 28.2829L810.856 28.731L812.722 29.1726L814.588 29.6074L816.455 30.0348L818.321 30.4545L820.187 30.8662L822.053 31.2694L823.919 31.6639L825.785 32.0492L827.651 32.425L829.517 32.791L831.383 33.1469L833.249 33.4922L835.115 33.8268L836.981 34.1502L838.847 34.4623L840.713 34.7627L842.579 35.0512L844.445 35.3275L846.311 35.5913L848.177 35.8425L850.043 36.0807L851.909 36.3058L853.775 36.5176L855.641 36.7159L857.507 36.9005L859.373 37.0713L861.239 37.228L863.105 37.3706L864.971 37.4989L866.837 37.6127L868.703 37.7121L870.569 37.7969L872.435 37.8671L874.301 37.9225L876.167 37.9631L878.033 37.9889L879.9 37.9999L881.766 37.996L883.632 37.9773L885.498 37.9437L887.364 37.8954L889.23 37.8323L891.096 37.7545L892.962 37.662L894.828 37.5551L896.694 37.4336L898.56 37.2979L900.426 37.1479L902.292 36.9838L904.158 36.8059L906.024 36.6141L907.89 36.4087L909.756 36.1899L911.622 35.9579L913.488 35.7129L915.354 35.4551L917.22 35.1847L919.086 34.902L920.952 34.6073L922.818 34.3008L924.684 33.9827L926.55 33.6534L928.416 33.3132L930.282 32.9623L932.148 32.6012L934.014 32.23L935.88 31.8492L937.746 31.459L939.612 31.0599L941.478 30.6522L943.344 30.2363L945.211 29.8125L947.077 29.3812L948.943 28.9429L950.809 28.4978L952.675 28.0464L954.541 27.5892L956.407 27.1264L958.273 26.6586L960.139 26.1862L962.005 25.7095L963.871 25.2291L965.737 24.7453L967.603 24.2586L969.469 23.7693L971.335 23.2781L973.201 22.7852L975.067 22.2912L976.933 21.7965L978.799 21.3015L980.665 20.8067L982.531 20.3126L984.397 19.8194L986.263 19.3278L988.129 18.8382L989.995 18.3509L991.861 17.8665L993.727 17.3854L995.593 16.9079L997.459 16.4346L999.325 15.9659L1001.19 15.5021L1003.06 15.0437L1004.92 14.5912L1006.79 14.1448L1008.66 13.7051L1010.52 13.2724L1012.39 12.8471L1014.25 12.4296L1016.12 12.0202L1017.99 11.6194L1019.85 11.2275L1021.72 10.8448L1023.58 10.4717L1025.45 10.1085L1027.32 9.75557L1029.18 9.41322L1031.05 9.08175L1032.91 8.76145L1034.78 8.45261L1036.65 8.15552L1038.51 7.87043L1040.38 7.59761L1042.24 7.3373L1044.11 7.08974L1045.98 6.85515L1047.84 6.63373L1049.71 6.4257L1051.57 6.23123L1053.44 6.0505L1055.31 5.88368L1057.17 5.73091L1059.04 5.59233L1060.9 5.46806L1062.77 5.35823L1064.64 5.26292L1066.5 5.18222L1068.37 5.11621L1070.23 5.06494L1072.1 5.02846L1073.97 5.00681L1075.83 5L1077.7 5.00804L1079.56 5.03092L1081.43 5.06862L1083.3 5.12111L1085.16 5.18834L1087.03 5.27025L1088.89 5.36676L1090.76 5.47779L1092.63 5.60324L1094.49 5.743L1096.36 5.89694L1098.22 6.06492L1100.09 6.24679L1101.96 6.44239L1103.82 6.65154L1105.69 6.87405L1107.55 7.10973L1109.42 7.35835L1111.29 7.6197L1113.15 7.89354L1115.02 8.17963L1116.89 8.47771L1118.75 8.7875L1120.62 9.10874L1122.48 9.44112L1124.35 9.78436L1126.22 10.1381L1128.08 10.5022L1129.95 10.8761L1131.81 11.2595L1133.68 11.6522L1135.55 12.0537L1137.41 12.4638L1139.28 12.882L1141.14 13.3079L1143.01 13.7412L1144.88 14.1815L1146.74 14.6284L1148.61 15.0814L1150.47 15.5403L1152.34 16.0045L1154.21 16.4736L1156.07 16.9473L1157.94 17.425L1159.8 17.9065L1161.67 18.3911L1163.54 18.8786L1165.4 19.3684L1167.27 19.8602L1169.13 20.3534L1171 20.8476" stroke="black"/>
<path id="Vector_2" d="M1 19.2741L2.86603 19.8358L4.73206 20.397L6.59809 20.9572L8.46411 21.5159L10.3301 22.0725L12.1962 22.6266L14.0622 23.1778L15.9282 23.7254L17.7943 24.269L19.6603 24.8081L21.5263 25.3422L23.3923 25.8709L25.2584 26.3936L27.1244 26.9099L28.9904 27.4194L30.8565 27.9215L32.7225 28.4158L34.5885 28.9019L36.4545 29.3794L38.3206 29.8477L40.1866 30.3066L42.0526 30.7555L43.9187 31.1941L45.7847 31.6219L47.6507 32.0386L49.5167 32.4439L51.3828 32.8373L53.2488 33.2185L55.1148 33.5871L56.9809 33.9429L58.8469 34.2854L60.7129 34.6145L62.5789 34.9297L64.445 35.2309L66.311 35.5177L68.177 35.7899L70.0431 36.0472L71.9091 36.2894L73.7751 36.5163L75.6411 36.7277L77.5072 36.9234L79.3732 37.1032L81.2392 37.2669L83.1053 37.4145L84.9713 37.5457L86.8373 37.6605L88.7034 37.7588L90.5694 37.8404L92.4354 37.9053L94.3014 37.9534L96.1675 37.9848L98.0335 37.9993L99.8995 37.9969L101.766 37.9777L103.632 37.9416L105.498 37.8888L107.364 37.8192L109.23 37.7329L111.096 37.63L112.962 37.5106L114.828 37.3748L116.694 37.2227L118.56 37.0544L120.426 36.8701L122.292 36.67L124.158 36.4543L126.024 36.2231L127.89 35.9766L129.756 35.7151L131.622 35.4388L133.488 35.1479L135.354 34.8428L137.22 34.5236L139.086 34.1908L140.952 33.8445L142.818 33.4851L144.684 33.1129L146.55 32.7283L148.416 32.3315L150.282 31.923L152.148 31.5031L154.014 31.0722L155.88 30.6307L157.746 30.179L159.612 29.7174L161.478 29.2465L163.344 28.7666L165.211 28.2781L167.077 27.7815L168.943 27.2773L170.809 26.7659L172.675 26.2477L174.541 25.7233L176.407 25.1931L178.273 24.6575L180.139 24.1171L182.005 23.5723L183.871 23.0237L185.737 22.4716L187.603 21.9167L189.469 21.3595L191.335 20.8003L193.201 20.2398L195.067 19.6784L196.933 19.1167L198.799 18.555L200.665 17.9941L202.531 17.4343L204.397 16.8761L206.263 16.3201L208.129 15.7668L209.995 15.2166L211.861 14.67L213.727 14.1277L215.593 13.5899L217.459 13.0573L219.325 12.5302L221.191 12.0092L223.057 11.4948L224.923 10.9873L226.789 10.4874L228.656 9.99528L230.522 9.51156L232.388 9.03662L234.254 8.57089L236.12 8.11479L237.986 7.66874L239.852 7.23313L241.718 6.80836L243.584 6.39481L245.45 5.99285L247.316 5.60283L249.182 5.22513L251.048 4.86006L252.914 4.50797L254.78 4.16916L256.646 3.84395L258.512 3.53263L260.378 3.23547L262.244 2.95274L264.11 2.68471L265.976 2.4316L267.842 2.19365L269.708 1.97107L271.574 1.76406L273.44 1.57281L275.306 1.39749L277.172 1.23826L279.038 1.09526L280.904 0.968614L282.77 0.858446L284.636 0.764851L286.502 0.687913L288.368 0.627701L290.234 0.58427L292.1 0.557659L293.967 0.547891L295.833 0.554975L297.699 0.578905L299.565 0.61966L301.431 0.677202L303.297 0.75148L305.163 0.842428L307.029 0.949962L308.895 1.07399L310.761 1.21439L312.627 1.37105L314.493 1.54382L316.359 1.73254L318.225 1.93705L320.091 2.15716L321.957 2.39268L323.823 2.64339L325.689 2.90906L327.555 3.18947L329.421 3.48434L331.287 3.79343L333.153 4.11645L335.019 4.45311L336.885 4.80311L338.751 5.16613L340.617 5.54185L342.483 5.92992L344.349 6.33L346.215 6.74174L348.081 7.16475L349.947 7.59866L351.813 8.04307L353.679 8.49759L355.545 8.96182L357.411 9.43532L359.277 9.91767L361.144 10.4084L363.01 10.9072L364.876 11.4135L366.742 11.9268L368.608 12.4468L370.474 12.9729L372.34 13.5047L374.206 14.0417L376.072 14.5834L377.938 15.1293L379.804 15.6789L381.67 16.2318L383.536 16.7874L385.402 17.3452L387.268 17.9048L389.134 18.4656L391 19.0272L392.866 19.589L394.732 20.1504L396.598 20.7111L398.464 21.2705L400.33 21.8281L402.196 22.3834L404.062 22.9359L405.928 23.4852L407.794 24.0306L409.66 24.5717L411.526 25.1081L413.392 25.6392L415.258 26.1646L417.124 26.6838L418.99 27.1963L420.856 27.7017L422.722 28.1995L424.588 28.6893L426.455 29.1706L428.321 29.643L430.187 30.1061L432.053 30.5594L433.919 31.0026L435.785 31.4352L437.651 31.8569L439.517 32.2672L441.383 32.6659L443.249 33.0525L445.115 33.4267L446.981 33.7881L448.847 34.1365L450.713 34.4715L452.579 34.7929L454.445 35.1003L456.311 35.3934L458.177 35.6721L460.043 35.9359L461.909 36.1848L463.775 36.4185L465.641 36.6367L467.507 36.8393L469.373 37.0261L471.239 37.197L473.105 37.3516L474.971 37.4901L476.837 37.6121L478.703 37.7176L480.569 37.8066L482.435 37.8788L484.301 37.9344L486.167 37.9731L488.033 37.995L489.9 38L491.766 37.9882L493.632 37.9596L495.498 37.9141L497.364 37.8519L499.23 37.7729L501.096 37.6773L502.962 37.5651L504.828 37.4365L506.694 37.2915L508.56 37.1303L510.426 36.9531L512.292 36.7599L514.158 36.551L516.024 36.3266L517.89 36.0868L519.756 35.8318L521.622 35.562L523.488 35.2775L525.354 34.9786L527.22 34.6656L529.086 34.3388L530.952 33.9983L532.818 33.6446L534.684 33.278L536.55 32.8988L538.416 32.5073L540.282 32.104L542.148 31.689L544.014 31.2629L545.88 30.826L547.746 30.3787L549.612 29.9215L551.478 29.4546L553.344 28.9786L555.21 28.4938L557.077 28.0008L558.943 27.4998L560.809 26.9915L562.675 26.4763L564.541 25.9545L566.407 25.4268L568.273 24.8935L570.139 24.3552L572.005 23.8122L573.871 23.2652L575.737 22.7146L577.603 22.1609L579.469 21.6047L581.335 21.0463L583.201 20.4863L585.067 19.9252L586.933 19.3636L588.799 18.8018L590.665 18.2405L592.531 17.6801L594.397 17.1212L596.263 16.5642L598.129 16.0096L599.995 15.458L601.861 14.9098L603.727 14.3655L605.593 13.8256L607.459 13.2907L609.325 12.7611L611.191 12.2374L613.057 11.7201L614.923 11.2095L616.789 10.7062L618.656 10.2106L620.522 9.7231L622.388 9.24425L624.254 8.77442L626.12 8.31404L627.986 7.86352L629.852 7.42328L631.718 6.99369L633.584 6.57516L635.45 6.16806L637.316 5.77275L639.182 5.38959L641.048 5.01893L642.914 4.6611L644.78 4.31641L646.646 3.98519L648.512 3.66773L650.378 3.36431L652.244 3.07521L654.11 2.80069L655.976 2.54099L657.842 2.29635L659.708 2.06699L661.574 1.85311L663.44 1.65491L665.306 1.47257L667.172 1.30625L669.038 1.1561L670.904 1.02225L672.77 0.90483L674.636 0.80394L676.502 0.719672L678.368 0.652101L680.234 0.601289L682.1 0.567281L683.966 0.550108L685.833 0.549786L687.699 0.566314L689.565 0.599677L691.431 0.649847L693.297 0.716777L695.163 0.800407L697.029 0.900663L698.895 1.01745L700.761 1.15067L702.627 1.3002L704.493 1.46591L706.359 1.64764L708.225 1.84523L710.091 2.05851L711.957 2.28728L713.823 2.53134L715.689 2.79047L717.555 3.06443L719.421 3.35298L721.287 3.65585L723.153 3.97278L725.019 4.30348L726.885 4.64766L728.751 5.00499L730.617 5.37517L732.483 5.75786L734.349 6.15271L736.215 6.55936L738.081 6.97746L739.947 7.40663L741.813 7.84648L743.679 8.29661L745.545 8.75662L747.411 9.22609L749.278 9.70461L751.144 10.1917L753.01 10.687L754.876 11.1901L756.742 11.7004L758.608 12.2175L760.474 12.741L762.34 13.2703L764.206 13.8051L766.072 14.3447L767.938 14.8889L769.804 15.4369L771.67 15.9884L773.536 16.5429L775.402 17.0998L777.268 17.6587L779.134 18.219L781 18.7803L782.866 19.3421L784.732 19.9037L786.598 20.4648L788.464 21.0249L790.33 21.5833L792.196 22.1397L794.062 22.6935L795.928 23.2442L797.794 23.7914L799.66 24.3344L801.526 24.873L803.392 25.4065L805.258 25.9344L807.124 26.4564L808.99 26.9719L810.856 27.4805L812.722 27.9817L814.588 28.4751L816.455 28.9602L818.321 29.4365L820.187 29.9038L822.053 30.3614L823.919 30.8091L825.785 31.2464L827.651 31.6729L829.517 32.0883L831.383 32.4921L833.249 32.8841L835.115 33.2637L836.981 33.6308L838.847 33.985L840.713 34.326L842.579 34.6534L844.445 34.9669L846.311 35.2664L848.177 35.5514L850.043 35.8218L851.909 36.0773L853.775 36.3177L855.641 36.5427L857.507 36.7522L859.373 36.946L861.239 37.1239L863.105 37.2857L864.971 37.4312L866.837 37.5605L868.703 37.6733L870.569 37.7695L872.435 37.8491L874.301 37.912L876.167 37.9581L878.033 37.9874L879.9 37.9999L881.766 37.9955L883.632 37.9742L885.498 37.9361L887.364 37.8813L889.23 37.8097L891.096 37.7214L892.962 37.6165L894.828 37.4951L896.694 37.3572L898.56 37.2032L900.426 37.033L902.292 36.8468L904.158 36.6448L906.024 36.4271L907.89 36.194L909.756 35.9457L911.622 35.6824L913.488 35.4044L915.354 35.1118L917.22 34.8049L919.086 34.4841L920.952 34.1496L922.818 33.8017L924.684 33.4407L926.55 33.067L928.416 32.6809L930.282 32.2827L932.148 31.8728L934.014 31.4516L935.88 31.0194L937.746 30.5766L939.612 30.1236L941.478 29.6609L943.344 29.1889L945.211 28.7079L947.077 28.2185L948.943 27.7209L950.809 27.2158L952.675 26.7036L954.541 26.1846L956.407 25.6594L958.273 25.1285L960.139 24.5923L962.005 24.0514L963.871 23.5061L965.737 22.957L967.603 22.4046L969.469 21.8494L971.335 21.2919L973.201 20.7326L975.067 20.1719L976.933 19.6105L978.799 19.0487L980.665 18.4871L982.531 17.9263L984.397 17.3666L986.263 16.8087L988.129 16.253L989.995 15.7L991.861 15.1503L993.727 14.6042L995.593 14.0623L997.459 13.5252L999.325 12.9932L1001.19 12.4668L1003.06 11.9466L1004.92 11.433L1006.79 10.9264L1008.66 10.4274L1010.52 9.93631L1012.39 9.45362L1014.25 8.97978L1016.12 8.51519L1017.99 8.06029L1019.85 7.61548L1021.72 7.18116L1023.58 6.75773L1025.45 6.34556L1027.32 5.94502L1029.18 5.55648L1031.05 5.18028L1032.91 4.81677L1034.78 4.46627L1036.65 4.12909L1038.51 3.80554L1040.38 3.49592L1042.24 3.20049L1044.11 2.91953L1045.98 2.65329L1047.84 2.402L1049.71 2.1659L1051.57 1.94519L1053.44 1.74008L1055.31 1.55075L1057.17 1.37737L1059.04 1.22009L1060.9 1.07906L1062.77 0.954408L1064.64 0.84624L1066.5 0.754656L1068.37 0.679738L1070.23 0.621554L1072.1 0.580156L1073.97 0.555581L1075.83 0.547852L1077.7 0.556974L1079.56 0.582942L1081.43 0.625729L1083.3 0.685299L1085.16 0.761598L1087.03 0.854557L1088.89 0.964092L1090.76 1.0901L1092.63 1.23248L1094.49 1.3911L1096.36 1.5658L1098.22 1.75645L1100.09 1.96285L1101.96 2.18484L1103.82 2.42221L1105.69 2.67474L1107.55 2.94221L1109.42 3.22438L1111.29 3.52099L1113.15 3.83177L1115.02 4.15646L1116.89 4.49475L1118.75 4.84634L1120.62 5.21091L1122.48 5.58814L1124.35 5.97769L1126.22 6.3792L1128.08 6.79232L1129.95 7.21667L1131.81 7.65187L1133.68 8.09753L1135.55 8.55325L1137.41 9.01861L1139.28 9.49321L1141.14 9.97661L1143.01 10.4684L1144.88 10.9681L1146.74 11.4752L1148.61 11.9894L1150.47 12.5101L1152.34 13.037L1154.21 13.5694L1156.07 14.107L1157.94 14.6492L1159.8 15.1956L1161.67 15.7456L1163.54 16.2989L1165.4 16.8548L1167.27 17.4129L1169.13 17.9726L1171 18.5336" stroke="black"/>
</g>
</g>
</svg>
